<?xml version="1.0" encoding="utf-8"?>
<!-- Generator: Adobe Illustrator 24.0.0, SVG Export Plug-In . SVG Version: 6.00 Build 0)  -->
<svg version="1.1" id="Layer_1" xmlns="http://www.w3.org/2000/svg" xmlns:xlink="http://www.w3.org/1999/xlink" x="0px" y="0px"
	 viewBox="0 0 1024 1024" style="enable-background:new 0 0 1024 1024;" xml:space="preserve">
<style type="text/css">
	.st0{fill:url(#SVGID_1_);}
	.st1{fill:url(#SVGID_2_);}
	.st2{fill:url(#SVGID_3_);}
	.st3{fill:url(#SVGID_4_);}
	.st4{fill:url(#SVGID_5_);}
	.st5{fill:url(#SVGID_6_);}
	.st6{fill:url(#SVGID_7_);}
	.st7{fill:url(#SVGID_8_);}
	.st8{fill:url(#SVGID_9_);}
	.st9{fill:url(#SVGID_10_);}
	.st10{fill:url(#SVGID_11_);}
	.st11{fill:url(#SVGID_12_);}
	.st12{fill:url(#SVGID_13_);}
	.st13{fill:url(#SVGID_14_);}
	.st14{fill:url(#SVGID_15_);}
	.st15{fill:url(#SVGID_16_);}
	.st16{fill:url(#SVGID_17_);}
	.st17{fill:url(#SVGID_18_);}
	.st18{fill:url(#SVGID_19_);}
	.st19{fill:url(#SVGID_20_);}
	.st20{fill:url(#SVGID_21_);}
	.st21{fill:url(#SVGID_22_);}
	.st22{fill:url(#SVGID_23_);}
	.st23{fill:url(#SVGID_24_);}
	.st24{fill:url(#SVGID_25_);}
	.st25{fill:url(#SVGID_26_);}
	.st26{fill:url(#SVGID_27_);}
	.st27{fill:url(#SVGID_28_);}
	.st28{fill:url(#SVGID_29_);}
	.st29{fill:url(#SVGID_30_);}
	.st30{fill:url(#SVGID_31_);}
	.st31{fill:url(#SVGID_32_);}
	.st32{fill:url(#SVGID_33_);}
	.st33{fill:url(#SVGID_34_);}
	.st34{fill:url(#SVGID_35_);}
	.st35{fill:url(#SVGID_36_);}
	.st36{fill:url(#SVGID_37_);}
	.st37{fill:url(#SVGID_38_);}
	.st38{fill:url(#SVGID_39_);}
	.st39{fill:url(#SVGID_40_);}
	.st40{fill:url(#SVGID_41_);}
	.st41{fill:url(#SVGID_42_);}
	.st42{fill:url(#SVGID_43_);}
	.st43{fill:url(#SVGID_44_);}
	.st44{fill:url(#SVGID_45_);}
	.st45{fill:url(#SVGID_46_);}
	.st46{fill:url(#SVGID_47_);}
	.st47{fill:url(#SVGID_48_);}
	.st48{fill:url(#SVGID_49_);}
	.st49{fill:url(#SVGID_50_);}
	.st50{fill:url(#SVGID_51_);}
	.st51{fill:url(#SVGID_52_);}
	.st52{fill:url(#SVGID_53_);}
	.st53{fill:url(#SVGID_54_);}
	.st54{fill:url(#SVGID_55_);}
	.st55{fill:url(#SVGID_56_);}
	.st56{fill:url(#SVGID_57_);}
	.st57{fill:url(#SVGID_58_);}
	.st58{fill:url(#SVGID_59_);}
	.st59{fill:url(#SVGID_60_);}
	.st60{fill:url(#SVGID_61_);}
	.st61{fill:url(#SVGID_62_);}
	.st62{fill:url(#SVGID_63_);}
	.st63{fill:url(#SVGID_64_);}
	.st64{fill:url(#SVGID_65_);}
	.st65{fill:url(#SVGID_66_);}
	.st66{fill:url(#SVGID_67_);}
	.st67{fill:url(#SVGID_68_);}
	.st68{fill:url(#SVGID_69_);}
	.st69{fill:url(#SVGID_70_);}
	.st70{fill:url(#SVGID_71_);}
	.st71{fill:url(#SVGID_72_);}
	.st72{fill:url(#SVGID_73_);}
	.st73{fill:url(#SVGID_74_);}
	.st74{fill:url(#SVGID_75_);}
	.st75{fill:url(#SVGID_76_);}
	.st76{fill:url(#SVGID_77_);}
	.st77{fill:url(#SVGID_78_);}
	.st78{fill:url(#SVGID_79_);}
	.st79{fill:url(#SVGID_80_);}
	.st80{fill:url(#SVGID_81_);}
	.st81{fill:url(#SVGID_82_);}
	.st82{fill:url(#SVGID_83_);}
	.st83{fill:url(#SVGID_84_);}
	.st84{fill:url(#SVGID_85_);}
</style>
<g id="XMLID_2_">
	<g>
		<path d="M347.6,675.5c5.6-6.6,12.8-6,13.6-5.9c0,0.1,0.1,0.3,0.1,0.4l0.7,1.8c-1.2,0.4-2,0.7-2,0.7l7.8,7.5c0,0,6.5-6.3,18.6-6.4
			c3,1.4,5.9,2.9,8.4,4.8c-5.2-2-10.5-2.8-10.5-2.8s1.6,3.4,4.1,7.4c-0.4,0.1-0.8,0.2-1.3,0.3c-0.6,0.2-1.2,0.3-1.9,0.5
			c-2.3-2.9-4.5-5.2-5.7-6.3c-5.1-0.6-10.4,3.2-8.5,7c0.5,1,1,1.9,1.7,2.8c-1.3,0.4-2.6,0.8-3.9,1.2c-0.3-1.5-0.8-2.9-1.9-4.2
			c-2.8-3.5-7.6-5.9-10.1-7c-5.4,0.7-8.6,6.9-8.6,6.9s-0.6,2.5,4,7.6c0.3,0.3,0.6,0.6,0.9,0.9c-2.1,0.4-3.9,0.5-5.3,0.4
			c-1.4-1.9-6.1-9.4-1-16.4c0,0,0,0,0,0C347.1,676.2,347.4,675.8,347.6,675.5z"/>
		<radialGradient id="SVGID_1_" cx="508.7389" cy="335.3885" r="369.0469" gradientUnits="userSpaceOnUse">
			<stop  offset="0.2503" style="stop-color:#F8D859"/>
			<stop  offset="0.4276" style="stop-color:#F5D455"/>
			<stop  offset="0.6184" style="stop-color:#EBC749"/>
			<stop  offset="0.8148" style="stop-color:#DBB135"/>
			<stop  offset="1" style="stop-color:#C6961B"/>
		</radialGradient>
		<path class="st0" d="M356.8,677.2c2.5,1.1,7.3,3.5,10.1,7c1,1.3,1.6,2.8,1.9,4.2c-6.1,1.8-11.6,3.4-15.7,4.1
			c-0.3-0.3-0.6-0.6-0.9-0.9c-4.6-5-4-7.6-4-7.6S351.4,677.9,356.8,677.2z"/>
		<radialGradient id="SVGID_2_" cx="508.7389" cy="335.3885" r="369.0469" gradientUnits="userSpaceOnUse">
			<stop  offset="0.2503" style="stop-color:#F8D859"/>
			<stop  offset="0.4276" style="stop-color:#F5D455"/>
			<stop  offset="0.6184" style="stop-color:#EBC749"/>
			<stop  offset="0.8148" style="stop-color:#DBB135"/>
			<stop  offset="1" style="stop-color:#C6961B"/>
		</radialGradient>
		<path class="st1" d="M379.5,677.5c1.2,1.2,3.4,3.4,5.7,6.3c-4.3,1.1-8.5,2.3-12.5,3.4c-0.6-0.9-1.2-1.8-1.7-2.8
			C369.1,680.6,374.5,676.8,379.5,677.5z"/>
		<radialGradient id="SVGID_3_" cx="508.7389" cy="335.3885" r="369.0469" gradientUnits="userSpaceOnUse">
			<stop  offset="0.2503" style="stop-color:#F8D859"/>
			<stop  offset="0.4276" style="stop-color:#F5D455"/>
			<stop  offset="0.6184" style="stop-color:#EBC749"/>
			<stop  offset="0.8148" style="stop-color:#DBB135"/>
			<stop  offset="1" style="stop-color:#C6961B"/>
		</radialGradient>
		<path class="st2" d="M386.6,685.6c3.9,5.4,5.4,12.2,5.4,12.2s-4.9-0.8-10.2-3.4c-4.1-2-7-4.3-9-7.1c4-1.2,8.3-2.4,12.5-3.4
			C385.7,684.4,386.1,685,386.6,685.6z"/>
		<radialGradient id="SVGID_4_" cx="508.7389" cy="335.3885" r="369.0469" gradientUnits="userSpaceOnUse">
			<stop  offset="0.2503" style="stop-color:#F8D859"/>
			<stop  offset="0.4276" style="stop-color:#F5D455"/>
			<stop  offset="0.6184" style="stop-color:#EBC749"/>
			<stop  offset="0.8148" style="stop-color:#DBB135"/>
			<stop  offset="1" style="stop-color:#C6961B"/>
		</radialGradient>
		<path class="st3" d="M368,696.5c0,0-9.9,0.2-14.9-4c4.2-0.8,9.6-2.3,15.7-4.1C369.5,692.4,368,696.5,368,696.5z"/>
		<radialGradient id="SVGID_5_" cx="508.7389" cy="335.3885" r="369.0469" gradientUnits="userSpaceOnUse">
			<stop  offset="0.2503" style="stop-color:#F8D859"/>
			<stop  offset="0.4276" style="stop-color:#F5D455"/>
			<stop  offset="0.6184" style="stop-color:#EBC749"/>
			<stop  offset="0.8148" style="stop-color:#DBB135"/>
			<stop  offset="1" style="stop-color:#C6961B"/>
		</radialGradient>
		<path class="st4" d="M303.5,670.8c0,0,4.7,7.6,18.2,5.5c8.4-1.3,11.1-2.8,14.4-4.9l2.6,0.3c0,0,0,0,0,0c0,0.3-0.4,4.9,8.1,4.9
			c-5.2,7-0.4,14.5,1,16.4c0.2,0.3,0.4,0.5,0.4,0.5s-15.3,1.7-28.2-2.1c-12.9-3.8-15.7-13-16.1-16.5c-0.2-2.2-0.3-3.2-0.4-3.7
			c0,0,0,0,0-0.1C303.5,670.9,303.5,670.8,303.5,670.8z"/>
		<radialGradient id="SVGID_6_" cx="508.7389" cy="335.3885" r="369.0469" gradientUnits="userSpaceOnUse">
			<stop  offset="0.2503" style="stop-color:#F8D859"/>
			<stop  offset="0.4276" style="stop-color:#F5D455"/>
			<stop  offset="0.6184" style="stop-color:#EBC749"/>
			<stop  offset="0.8148" style="stop-color:#DBB135"/>
			<stop  offset="1" style="stop-color:#C6961B"/>
		</radialGradient>
		<path class="st5" d="M399.2,682.8c4.3,5.6,0.5,13.1,0.5,13.1s-1.8-1.1-6.9-6.9c-1.7-1.9-3.2-4-4.5-6c4.5-1,7.6-1.5,9.7-1.5
			C398.5,681.9,398.9,682.3,399.2,682.8z"/>
		<radialGradient id="SVGID_7_" cx="508.7389" cy="335.3885" r="369.0469" gradientUnits="userSpaceOnUse">
			<stop  offset="0.2503" style="stop-color:#F8D859"/>
			<stop  offset="0.4276" style="stop-color:#F5D455"/>
			<stop  offset="0.6184" style="stop-color:#EBC749"/>
			<stop  offset="0.8148" style="stop-color:#DBB135"/>
			<stop  offset="1" style="stop-color:#C6961B"/>
		</radialGradient>
		<path class="st6" d="M384.2,675.6c0,0,5.3,0.9,10.5,2.8c1.2,0.9,2.3,1.9,3.4,3c-2.1,0.1-5.3,0.5-9.7,1.5
			C385.8,679,384.2,675.6,384.2,675.6z"/>
		<path d="M171.9,685.4c0,0.2-0.5,3.6-2.7,4.4c-0.4-7.2-6.1-10.5-13-9.8c-1.8,0.2-5.9,2.9-7.2,7.2c-1.1,0.5-2.9,0.9-4.5-0.6
			c2.3-3.8,7.2-9.7,15.4-9.5C170.1,677.3,171.6,683.6,171.9,685.4C171.9,685.4,171.9,685.4,171.9,685.4z"/>
		<radialGradient id="SVGID_8_" cx="508.7389" cy="335.3885" r="369.0469" gradientUnits="userSpaceOnUse">
			<stop  offset="0.2503" style="stop-color:#F8D859"/>
			<stop  offset="0.4276" style="stop-color:#F5D455"/>
			<stop  offset="0.6184" style="stop-color:#EBC749"/>
			<stop  offset="0.8148" style="stop-color:#DBB135"/>
			<stop  offset="1" style="stop-color:#C6961B"/>
		</radialGradient>
		<path class="st7" d="M130.9,608.2c1.2,5.8,6.3,9.8,6.3,9.8s-1.1,0.5-5.2,0.7c-4.1,0.2-8.9-1-8.9-1s-1-0.2-1.9-1.3
			c-0.7-0.9-1.3-2.3-1.4-4.5c1-0.3,2.2-0.7,3.4-1.1C126.3,609.6,128.6,608.9,130.9,608.2z"/>
		<path d="M119.8,611.8c0.1,2.3,0.7,3.7,1.4,4.5l-2.6,1.1c-1.1-1-2.3-2.5-3-4.6C116.8,612.6,118.1,612.3,119.8,611.8z"/>
		<radialGradient id="SVGID_9_" cx="508.7389" cy="335.3885" r="369.0469" gradientUnits="userSpaceOnUse">
			<stop  offset="0.2503" style="stop-color:#F8D859"/>
			<stop  offset="0.4276" style="stop-color:#F5D455"/>
			<stop  offset="0.6184" style="stop-color:#EBC749"/>
			<stop  offset="0.8148" style="stop-color:#DBB135"/>
			<stop  offset="1" style="stop-color:#C6961B"/>
		</radialGradient>
		<path class="st8" d="M741.5,437.1c-0.4,0.5-8.3,11.2-17.4,18.1c-1.2,0.9-2.4,1.7-3.7,2.5c-6.8,4-14.1,5.7-16.8,6.2
			c0.7-1.8,8.5-15.6,13.1-19.5c4.9-4.1,22.8-6.4,33.8-20.5c11-14.1,18-27.4,37.3-52.3c19.3-24.9,56-29.2,72.6-31.2
			c16.7-2,45.4-5.2,58.6,9.5c1.3,1.5,2.5,3,3.6,4.7c-1.1-0.2-3-0.3-6.4-0.1c-7.7,0.5-22.9,2.5-22.9,2.5s-2.5-4.1-8.1-7.5
			c-1-0.6-2.1-1.2-3.3-1.7c-3.4-1.5-7.6-2.5-12.8-2.5c-17,0.2-24.3,14.1-24.3,14.1l-6,1.3h8.7l1.7,1.4c-0.8,1.1-3.2,5.4,2.1,13
			c0.4,0.5,0.8,1.1,1.2,1.6c6.4,7.6,17.1,10.7,17.1,10.7l4.3-4.5l2.9-0.6c0,0,6.3-0.4,11.9-6.6c5.6-6.3,7.1-15.5,7.1-15.5
			s21-3.8,25.2-3.1c1.3,0.2,2.7,1,4,2c6.7,13.5,5.5,29.4,0.8,37.5c-0.6,1.1-1.3,2.2-1.9,3.3c-0.5-2.2-2.7-5.9-11.7-6.6
			c-12.6-0.9-26.8,7.8-37.3,10c-8.9,1.9-18.3,7-31,8.5c0,0,0,0,0,0c-2.2,0.3-4.5,0.4-6.9,0.4c-16.4,0.1-25.6-10.9-28.9-14.7
			c-3.3-3.8-4.8-5.2-4.8-5.2s2.5,11.6,13.3,19.1c6.9,4.8,16.4,6.6,25.3,5.8c9.4,6.7,20.8,10.1,20.8,10.1s-26.5,8.5-44.2,0.3
			c-17.7-8.2-21.3-28.7-21.3-39.4s4.3-23.1,4.3-23.1s-9.8,12.3-8.1,36.2c1.7,23.9,20.2,39.8,36.4,45.4l-6.1,2.8
			c0,0-8.4,0.5-17.7-6.3c-2.3-1.7-4.6-3.8-6.9-6.4c-11.6-13.5-14.4-38-14.4-38s-0.1,0.4-0.2,1.1l-2.8-0.5c0.9-5.7,1.1-10.1,1.1-10.1
			s-2.5,17-19.4,41.5c-16.9,24.5-41,40.5-41,40.5l4.1-11.2c0,0,4.8-2.5,8.9-10.3C739.6,442.4,741.4,437.5,741.5,437.1z M916.2,369.2
			c3.6,0.3,4.9-8.4-0.2-8C910.7,361.5,912.7,368.9,916.2,369.2z"/>
		<path d="M864.1,364c-1.3,3.6-0.5,5.2,1.9,5.7c2.6,0.5,4.1-0.8,4.5-1.6c0.4-0.9,0.3-2.9,0.3-2.9s-1.8,1.7-2,1.7
			C868.7,366.9,865.9,365.1,864.1,364z M887.4,369.3c-0.2,0.4-5.1,8.8-15.9,9.3c-11.1,0.5-18.3-9.6-18.3-9.6s-1.7,3.3,1.2,6.9
			l-1.9,0.7c-0.4-0.5-0.8-1.1-1.2-1.6c-5.3-7.5-2.9-11.9-2.1-13c0.1-0.2,0.2-0.3,0.2-0.3s2.2,0.1,4.2-0.9c2-1,9.3-8.8,22.2-7
			c13,1.8,9.8,10.4,9.8,10.4h6.5c0,0,1-1.4,0.2-4c-0.5-1.7-2.2-6.5-8-9.6c-1-0.5-2-1-3.2-1.4l0.7-1.6c1.2,0.5,2.3,1.1,3.3,1.7
			c5.6,3.3,8.1,7.5,8.1,7.5s15.2-2,22.9-2.5c3.4-0.2,5.3-0.1,6.4,0.1c1,1.4,1.8,2.9,2.5,4.4c-1.3-1-2.7-1.8-4-2
			c-4.2-0.6-25.2,3.1-25.2,3.1s-1.5,9.2-7.1,15.5c-5.6,6.3-11.9,6.6-11.9,6.6s2.6-1,7-5.4C888.5,372.4,887.4,369.3,887.4,369.3z"/>
		<path d="M924,399.9c-1,1.7-2,3.4-3.1,5.2c-1-2.9-3.4-7.5-8.7-7.5c-7.6-0.1-20.3,4.1-32.3,8.6c-12,4.5-13.1,1.6-23.8,7.3
			c-2.9,1.5-6.3,2.6-9.9,3.3c-1-1.1-1.6-1.9-1.8-2.2l-0.4-2.8c12.8-1.5,22.2-6.6,31-8.5c10.4-2.2,24.7-10.9,37.3-10
			C921.2,393.9,923.4,397.7,924,399.9z"/>
		<radialGradient id="SVGID_10_" cx="508.7389" cy="335.3885" r="369.0469" gradientUnits="userSpaceOnUse">
			<stop  offset="0.2503" style="stop-color:#F8D859"/>
			<stop  offset="0.4276" style="stop-color:#F5D455"/>
			<stop  offset="0.6184" style="stop-color:#EBC749"/>
			<stop  offset="0.8148" style="stop-color:#DBB135"/>
			<stop  offset="1" style="stop-color:#C6961B"/>
		</radialGradient>
		<path class="st9" d="M912.2,397.5c5.2,0.1,7.7,4.7,8.7,7.5c-5.3,8.7-11.4,17.6-14.7,18.5c-2.5,0.7-7.1,0.2-12.1-0.2h0
			c-3.9-0.3-8-0.5-11.6-0.1c-8.3,0.9-13.8,2.5-23.3,0.9c-6.2-1.1-10.7-4.9-13-7.4c3.6-0.7,7-1.8,9.9-3.3c10.8-5.7,11.8-2.9,23.8-7.3
			C891.9,401.7,904.6,397.4,912.2,397.5z"/>
		<path d="M916,361.2c5.1-0.4,3.8,8.3,0.2,8C912.7,368.9,910.7,361.5,916,361.2z"/>
		<path d="M824.3,436.6c0.5,3.4,2.9,7,6,9.9l-0.3,0.3c-16.2-5.7-34.7-21.6-36.4-45.4c-1.7-23.9,8.1-36.2,8.1-36.2
			s-4.3,12.4-4.3,23.1s3.6,31.3,21.3,39.4c17.7,8.2,44.2-0.3,44.2-0.3s-11.4-3.4-20.8-10.1c1.4-0.1,2.8-0.3,4.2-0.6
			c2.3,2.5,6.8,6.4,13,7.4c9.5,1.6,15.1,0,23.3-0.9c3.6-0.4,7.7-0.2,11.6,0.1l-0.1,1.8c-0.7,0-5.3,0.1-15.2,2.4
			c-10.8,2.5-17,6.2-31.3,8.1c-4.6,0.6-8.9,0.9-12.6,1C830.4,436.9,826.6,436.8,824.3,436.6z"/>
		<radialGradient id="SVGID_11_" cx="508.7389" cy="335.3885" r="369.0469" gradientUnits="userSpaceOnUse">
			<stop  offset="0.2503" style="stop-color:#F8D859"/>
			<stop  offset="0.4276" style="stop-color:#F5D455"/>
			<stop  offset="0.6184" style="stop-color:#EBC749"/>
			<stop  offset="0.8148" style="stop-color:#DBB135"/>
			<stop  offset="1" style="stop-color:#C6961B"/>
		</radialGradient>
		<path class="st10" d="M894,425.3C894,425.3,894.1,425.3,894,425.3c0.1,0-9.8,7.3-30.2,12.8c-14.7,4-24.5,0.8-28.9-1.3
			c3.7-0.1,8-0.4,12.6-1c14.3-2,20.5-5.6,31.3-8.1C888.7,425.4,893.3,425.3,894,425.3z"/>
		<radialGradient id="SVGID_12_" cx="508.7389" cy="335.3885" r="369.0469" gradientUnits="userSpaceOnUse">
			<stop  offset="0.2503" style="stop-color:#F8D859"/>
			<stop  offset="0.4276" style="stop-color:#F5D455"/>
			<stop  offset="0.6184" style="stop-color:#EBC749"/>
			<stop  offset="0.8148" style="stop-color:#DBB135"/>
			<stop  offset="1" style="stop-color:#C6961B"/>
		</radialGradient>
		<path class="st11" d="M892.4,360.4c0.8,2.6-0.2,4-0.2,4h-6.5c0,0,3.1-8.6-9.8-10.4c-13-1.8-20.2,6-22.2,7c-2,1-4.2,0.9-4.2,0.9
			s-0.1,0.1-0.2,0.3l-1.7-1.4c0,0,6.8-12.6,23.6-12.7c4.1,0,7.4,0.5,10.1,1.4c1.2,0.4,2.2,0.9,3.2,1.4
			C890.2,353.9,891.9,358.8,892.4,360.4z"/>
		<radialGradient id="SVGID_13_" cx="508.7389" cy="335.3885" r="369.0469" gradientUnits="userSpaceOnUse">
			<stop  offset="0.2503" style="stop-color:#F8D859"/>
			<stop  offset="0.4276" style="stop-color:#F5D455"/>
			<stop  offset="0.6184" style="stop-color:#EBC749"/>
			<stop  offset="0.8148" style="stop-color:#DBB135"/>
			<stop  offset="1" style="stop-color:#C6961B"/>
		</radialGradient>
		<path class="st12" d="M887.4,369.3c0,0,1,3.1-3.4,7.6c-4.5,4.5-7,5.4-7,5.4l-2.9,0.6c0,0-6.7,0.9-15.2-3.6c-2-1.1-3.4-2.3-4.3-3.4
			c-2.9-3.6-1.2-6.9-1.2-6.9s7.2,10.1,18.3,9.6C882.3,378.1,887.2,369.7,887.4,369.3z"/>
		<radialGradient id="SVGID_14_" cx="508.7389" cy="335.3885" r="369.0469" gradientUnits="userSpaceOnUse">
			<stop  offset="0.2503" style="stop-color:#F8D859"/>
			<stop  offset="0.4276" style="stop-color:#F5D455"/>
			<stop  offset="0.6184" style="stop-color:#EBC749"/>
			<stop  offset="0.8148" style="stop-color:#DBB135"/>
			<stop  offset="1" style="stop-color:#C6961B"/>
		</radialGradient>
		<path class="st13" d="M880.5,647.5c5.3,9.6,2.9,19.3,2.9,20.1c0,0.8-1-4.6-6-8.1c-5-3.5-11.8-9.9-14.2-12.8
			c-2.6-3.7,0.4-7.6,3.7-9c2.2-1,5.3,0.2,7.2,1.1C876,640.8,878.4,643.6,880.5,647.5z"/>
		<path d="M882,347.8l-0.7,1.6c-2.7-0.9-6-1.5-10.1-1.4c-16.9,0.2-23.6,12.7-23.6,12.7h-8.7l6-1.3c0,0,7.3-13.9,24.3-14.1
			C874.3,345.3,878.6,346.4,882,347.8z"/>
		<path d="M874,382.9l-4.3,4.5c0,0-10.7-3.1-17.1-10.7l1.9-0.7c0.9,1.1,2.3,2.3,4.3,3.4C867.3,383.8,874,382.9,874,382.9z"/>
		<radialGradient id="SVGID_15_" cx="508.7389" cy="335.3885" r="369.0469" gradientUnits="userSpaceOnUse">
			<stop  offset="0.2503" style="stop-color:#F8D859"/>
			<stop  offset="0.4276" style="stop-color:#F5D455"/>
			<stop  offset="0.6184" style="stop-color:#EBC749"/>
			<stop  offset="0.8148" style="stop-color:#DBB135"/>
			<stop  offset="1" style="stop-color:#C6961B"/>
		</radialGradient>
		<path class="st14" d="M870.8,365.2c0,0,0.1,2-0.3,2.9c-0.4,0.9-1.9,2.1-4.5,1.6c-2.4-0.5-3.2-2.1-1.9-5.7c1.8,1.1,4.6,2.9,4.7,2.9
			C869,366.9,870.8,365.2,870.8,365.2z"/>
		<path d="M844.1,630.1c7.5,0.9,12.3,4.8,13.6,5.6c1.4,0.8,1,3.3,1.5,3.1c0.4-0.1,5.4-5.5,10-7.2c0.3,1.6-0.5,3-0.5,3s2.3,1.1,5.3,4
			c-1.8-0.9-5-2.1-7.2-1.1c-3.3,1.5-6.3,5.3-3.7,9c-2.4-3-2.4-7.2-2.4-7.2s-1,0.5-2.8,2.7c-1.8,2.1-1.4,4.4-1.4,4.4s0.6,0.4,1.4,1.2
			c-1.6,0.4-5.9,1.7-9.7,4c-3,1.9-4.1,3.7-4.5,4.8c-1.9-0.8-3.6-1.1-5.1-1.3l0.1-1c0,0,6.8-6.2,11.2-9.1c4.4-2.9,6.6-5.6,6.6-5.6
			s-6.8-5.1-13.4-6.8l0.3-2.8C843.8,630.1,844,630.1,844.1,630.1z"/>
		<radialGradient id="SVGID_16_" cx="508.7389" cy="335.3885" r="369.0469" gradientUnits="userSpaceOnUse">
			<stop  offset="0.2503" style="stop-color:#F8D859"/>
			<stop  offset="0.4276" style="stop-color:#F5D455"/>
			<stop  offset="0.6184" style="stop-color:#EBC749"/>
			<stop  offset="0.8148" style="stop-color:#DBB135"/>
			<stop  offset="1" style="stop-color:#C6961B"/>
		</radialGradient>
		<path class="st15" d="M867.7,629.4c1,0.7,1.4,1.5,1.5,2.3c-4.6,1.7-9.6,7-10,7.2c-0.5,0.2-0.1-2.3-1.5-3.1
			c-1.3-0.8-6.1-4.7-13.6-5.6c1.6-1.3,6.6-4.9,16.1-4.8C863.5,626.7,866.1,628.3,867.7,629.4z"/>
		<radialGradient id="SVGID_17_" cx="508.7389" cy="335.3885" r="369.0469" gradientUnits="userSpaceOnUse">
			<stop  offset="0.2503" style="stop-color:#F8D859"/>
			<stop  offset="0.4276" style="stop-color:#F5D455"/>
			<stop  offset="0.6184" style="stop-color:#EBC749"/>
			<stop  offset="0.8148" style="stop-color:#DBB135"/>
			<stop  offset="1" style="stop-color:#C6961B"/>
		</radialGradient>
		<path class="st16" d="M866.1,663.6c1,11-7.3,18.3-7.3,18.3s-5.9-20.7-12.8-24.4c-0.7-0.4-1.5-0.7-2.2-1c0.4-1,1.5-2.8,4.5-4.8
			c3.8-2.4,8.1-3.6,9.7-4C860.5,650,865.4,655.4,866.1,663.6z"/>
		<path d="M843.6,630.1l-0.3,2.8c-0.2,0-0.4-0.1-0.6-0.2c-1-0.2-2-0.3-3-0.3c-6.3-0.1-15.6,4.1-18.6,5.5c2.4,1.6,8.5,5.7,11.1,8
			c3,2.7,6.2,7.7,6.6,8.4c0,0,0,0.1,0,0.1l-0.1,1c0,0,0,0,0,0c-3.2-0.3-5.3,0.3-5.3,0.3s-2.4-3.3-10.2-1.1c-4.7,1.3-7.8,4-9.4,5.8
			c-0.8-0.6-2-1.1-4-1.1c0.7-0.9,1.5-1.8,2.6-2.7c0.7-0.6,1.5-1.2,2.4-1.8c7.1-4.6,11.4-4.7,12.9-4.6c0.4-0.8,0.8-2.2-0.4-3.9
			c-1.9-2.6-9.6-7.5-9.6-7.5s-1.3-1-4.3-0.4l-0.7-1.8c4.9-1.8,12.1-4.5,18-6.6c10-3.6,20.9-6.9,21.3-7.6c3,0.7,5.8,1.7,8.3,2.8
			c-9.6,0-14.6,3.5-16.1,4.8C844,630.1,843.8,630.1,843.6,630.1z"/>
		<radialGradient id="SVGID_18_" cx="508.7389" cy="335.3885" r="369.0469" gradientUnits="userSpaceOnUse">
			<stop  offset="0.2503" style="stop-color:#F8D859"/>
			<stop  offset="0.4276" style="stop-color:#F5D455"/>
			<stop  offset="0.6184" style="stop-color:#EBC749"/>
			<stop  offset="0.8148" style="stop-color:#DBB135"/>
			<stop  offset="1" style="stop-color:#C6961B"/>
		</radialGradient>
		<path class="st17" d="M856.7,639.6c0,0-2.2,2.7-6.6,5.6c-4.4,2.9-11.2,9.1-11.2,9.1s0,0,0-0.1c-0.4-0.6-3.6-5.6-6.6-8.4
			c-2.6-2.3-8.7-6.4-11.1-8c3-1.4,12.3-5.6,18.6-5.5c1,0,2,0.1,3,0.3c0.2,0,0.4,0.1,0.6,0.2C850,634.5,856.7,639.6,856.7,639.6z"/>
		<radialGradient id="SVGID_19_" cx="508.7389" cy="335.3885" r="369.0469" gradientUnits="userSpaceOnUse">
			<stop  offset="0.2503" style="stop-color:#F8D859"/>
			<stop  offset="0.4276" style="stop-color:#F5D455"/>
			<stop  offset="0.6184" style="stop-color:#EBC749"/>
			<stop  offset="0.8148" style="stop-color:#DBB135"/>
			<stop  offset="1" style="stop-color:#C6961B"/>
		</radialGradient>
		<path class="st18" d="M851,622.2c0.3,0.1,0.7,0.1,1,0.2c-0.5,0.7-11.3,4-21.3,7.6c-5.9,2.1-13.1,4.8-18,6.6h0
			c-3.4,1.3-5.7,2.2-5.8,2.3c-0.3,0.2-1.9-3.6,1.3-7.6c0,0,3.3-4.5,8.9-6.9c5.7-2.4,7.6,0,7.6,0s0.6-4.1,4.4-6.1
			c3.6-1.9,11.3,0.4,12,0.6c0,0,0,0,0,0C843.5,620.1,846.9,621.4,851,622.2z"/>
		<path d="M842,417.3c-8.8,0.8-18.4-1-25.3-5.8c-10.9-7.6-13.3-19.1-13.3-19.1s1.5,1.4,4.8,5.2c3.3,3.8,12.5,14.8,28.9,14.7
			c2.4,0,4.7-0.2,6.9-0.4c0,0,0,0,0,0l0.4,2.8c0.2,0.3,0.8,1.1,1.8,2.2C844.8,417,843.4,417.2,842,417.3z"/>
		<radialGradient id="SVGID_20_" cx="508.7389" cy="335.3885" r="369.0469" gradientUnits="userSpaceOnUse">
			<stop  offset="0.2503" style="stop-color:#F8D859"/>
			<stop  offset="0.4276" style="stop-color:#F5D455"/>
			<stop  offset="0.6184" style="stop-color:#EBC749"/>
			<stop  offset="0.8148" style="stop-color:#DBB135"/>
			<stop  offset="1" style="stop-color:#C6961B"/>
		</radialGradient>
		<path class="st19" d="M793,493c6.5-8.9,15.9-21.3,23.7-28.9c9-8.7,18.1-11.4,23-12.1c2.4-0.4,3.8-0.3,3.8-0.3s-11.5,5.8-29.6,26.4
			c-15.9,18-25.7,23.8-28,25C787,501.5,789.6,497.7,793,493z"/>
		<path d="M792.2,621c0.4,0.4,4,3.8,6.8,5.1c3,1.4,6.3,1.4,6.3,1.4s7.2-4.7,12.7-8.1c5.5-3.4,8.7-5.1,8.7-5.1l0.6-5.9
			c0,0-5.6-4.1-17.6-4.4c-12-0.3-15.7,3.4-15.7,3.4s-0.1,3.4-0.6,7.4C793.1,617.2,792.6,619.5,792.2,621z M783.3,649.5
			c9.6-7.5,20.5-8.5,20.5-8.7c0-0.2-1.3-10.5-1.3-10.5s-14.3-4.8-21.3-4.7c-6.9,0.2-7.7,4.2-7.7,4.2s-2.6,13.3-1.3,14.7
			C773.2,645.6,779.9,648.2,783.3,649.5z M837.3,616.8c0.6,0.4,1.9,1.2,3.8,2.1c-0.7-0.2-8.4-2.5-12-0.6c-3.8,2-4.4,6.1-4.4,6.1
			s-2-2.4-7.6,0c-5.7,2.4-8.9,6.9-8.9,6.9c-3.2,4-1.6,7.9-1.3,7.6c0.1-0.1,2.4-1,5.8-2.3h0l0.7,1.8c-0.7,0.1-1.5,0.4-2.3,0.7
			c-4.6,1.8-6.9,5.3-6.9,5.3l6.3,10.2l-9-9.3c0,0-0.6-0.4-4.8,0.7c-4.2,1.1-10.5,6.6-10.5,6.6s3.4,6,8.9,8.7c4,2,9.5,4.7,12.1,5.9
			c-0.1,1.6,0,3.1,0,4.5c0,1,0.2,1.9,0.5,2.7l-15.6-9.7c0,0-4.9-1.4-8.6,5.3c-1.1,0.6-2.6,1.3-4.5,1.3c1.4-6.9,7.2-11.4,7.2-11.4
			l-12.1-10.5c0,0-6.6-1.4-11.4,4.9c-0.3-0.4-0.6-0.7-0.8-1.1c-1-1.2-1.9-2.3-2.7-3.5c2.9-2.6,8.5-3.8,8.5-3.8s-0.5-2.3-0.3-5.1
			c0.2-2.8,0.9-11.9,0.9-11.9l-12.2-8c0,0-6.1,0.8-9.8,3.8c0.1-1.6,3.1-4.5,3.1-4.5s-1.3-0.2-2.8-0.9l7.2-4.1l-2.4-15.8
			c0,0-8.9-7.3-10.3-8.3c-1.3-0.9-4.2,4-6.8,7c-0.4-0.8-0.7-1.6-1.1-2.5c1.7-2.8,4.8-8.1,5.1-8.5c0.2-0.2-0.3-2.5-1.1-5.1l2.9-0.5
			c0.1,0.5,0.3,0.9,0.5,1.4c2.4,5.2,5.5,9.8,14.4,10.8c8.9,1.1,19.3-5.8,19.3-5.8l4.3-20.5c0,0-2.7-3.4-8-6.1
			c-5.3-2.8-10.4-2.8-17.6-1.2c-1.6,0.3-3,1-4.3,1.7l-0.9-1.2c4.6-3.6,10-7.2,13.3-7.8c6.9-1.4,18.8,10.3,18.8,10.3
			s6.8-3.1,17.2-1.5c10.1,1.5,18.4,11.4,18.9,12c0,0,0,0,0,0c0.9,1.4,1.8,2.8,2.6,4.2c-3.3-3.1-7.7-6.8-12.5-9.2
			c-9.8-5-16-3.9-20.2-3.3c-4.2,0.6-5.3,4.4-5.3,12.2s-3.8,11.9-3.8,11.9s1.7,2.4,5.3,4.4c3.7,2,10.9,5.1,10.9,5.1s14.8-1.8,25,0.6
			c6.2,1.4,11.8,5.3,15.2,8.2C835.5,613.1,836.7,616.5,837.3,616.8z M790.8,610.3c1-2.7,1.8-5.1,1.8-5.1s-11.2-4.6-16.2-7.7
			c-5-3.1-11.8-3.4-22.6,3.1c0,0,3.6,11.2,5.4,15.2c1.8,4,14.1,7.7,14.4,7.7s3.7-2.4,8.1-2.8c4.4-0.5,7.9,0.3,7.9,0
			C789.5,620.4,789.9,613,790.8,610.3z"/>
		<path d="M830.2,446.5c2.9,2.7,6.3,4.8,9.5,5.5c-5,0.8-14.1,3.4-23,12.1c-7.8,7.6-17.2,20-23.7,28.9c0.4-2.8,0.5-7.1-0.5-13.3
			c4.7-6.8,10-13.8,13.8-17.1c8.6-7.5,11-8,11-8s-6.3-2.5-13.3-7.6c0.5-1.5,0.8-2.4,0.8-2.4l1.2-1.3c9.3,6.8,17.7,6.3,17.7,6.3
			l6.1-2.8L830.2,446.5z"/>
		<radialGradient id="SVGID_21_" cx="508.7389" cy="335.3885" r="369.0469" gradientUnits="userSpaceOnUse">
			<stop  offset="0.2503" style="stop-color:#F8D859"/>
			<stop  offset="0.4276" style="stop-color:#F5D455"/>
			<stop  offset="0.6184" style="stop-color:#EBC749"/>
			<stop  offset="0.8148" style="stop-color:#DBB135"/>
			<stop  offset="1" style="stop-color:#C6961B"/>
		</radialGradient>
		<path class="st20" d="M833.4,655.6c0,0,9.4,9.6,1.2,22.8c-8.2,13.2-15.1,10-15.1,10s2.1-3.8,0.8-12.9c-1.4-9.1-5.3-13.8-5.3-13.8
			s-0.3-0.7-1.2-1.4c1.7-1.9,4.7-4.5,9.4-5.8C831.1,652.4,833.4,655.6,833.4,655.6z"/>
		<radialGradient id="SVGID_22_" cx="508.7389" cy="335.3885" r="369.0469" gradientUnits="userSpaceOnUse">
			<stop  offset="0.2503" style="stop-color:#F8D859"/>
			<stop  offset="0.4276" style="stop-color:#F5D455"/>
			<stop  offset="0.6184" style="stop-color:#EBC749"/>
			<stop  offset="0.8148" style="stop-color:#DBB135"/>
			<stop  offset="1" style="stop-color:#C6961B"/>
		</radialGradient>
		<path class="st21" d="M818.6,577.9c7.3,11.9,11.9,22.7,14.7,29.8c-3.5-2.9-9.1-6.7-15.2-8.2c-10.2-2.4-25-0.6-25-0.6
			s-7.2-3.1-10.9-5.1c-3.7-2-5.3-4.4-5.3-4.4s3.8-4,3.8-11.9s1.1-11.6,5.3-12.2c4.2-0.6,10.3-1.7,20.2,3.3
			C811,571.2,815.4,574.8,818.6,577.9L818.6,577.9z"/>
		<radialGradient id="SVGID_23_" cx="508.7389" cy="335.3885" r="369.0469" gradientUnits="userSpaceOnUse">
			<stop  offset="0.2503" style="stop-color:#F8D859"/>
			<stop  offset="0.4276" style="stop-color:#F5D455"/>
			<stop  offset="0.6184" style="stop-color:#EBC749"/>
			<stop  offset="0.8148" style="stop-color:#DBB135"/>
			<stop  offset="1" style="stop-color:#C6961B"/>
		</radialGradient>
		<path class="st22" d="M827.2,646.4c1.3,1.7,0.9,3.1,0.4,3.9c-1.5-0.1-5.8,0-12.9,4.6c-0.9,0.6-1.7,1.2-2.4,1.8l-1.9-2l-6.3-10.2
			c0,0,2.3-3.4,6.9-5.3c0.9-0.4,1.6-0.6,2.3-0.7c3-0.6,4.3,0.4,4.3,0.4S825.3,643.8,827.2,646.4z"/>
		<radialGradient id="SVGID_24_" cx="508.7389" cy="335.3885" r="369.0469" gradientUnits="userSpaceOnUse">
			<stop  offset="0.2503" style="stop-color:#F8D859"/>
			<stop  offset="0.4276" style="stop-color:#F5D455"/>
			<stop  offset="0.6184" style="stop-color:#EBC749"/>
			<stop  offset="0.8148" style="stop-color:#DBB135"/>
			<stop  offset="1" style="stop-color:#C6961B"/>
		</radialGradient>
		<path class="st23" d="M827.3,608.3l-0.6,5.9c0,0-3.2,1.8-8.7,5.1c-5.5,3.4-12.7,8.1-12.7,8.1s-3.4,0-6.3-1.4
			c-2.8-1.3-6.3-4.7-6.8-5.1c0.4-1.4,0.9-3.8,1.3-6.2c0.5-4,0.6-7.4,0.6-7.4s3.7-3.8,15.7-3.4C821.7,604.2,827.3,608.3,827.3,608.3z
			"/>
		<radialGradient id="SVGID_25_" cx="508.7389" cy="335.3885" r="369.0469" gradientUnits="userSpaceOnUse">
			<stop  offset="0.2503" style="stop-color:#F8D859"/>
			<stop  offset="0.4276" style="stop-color:#F5D455"/>
			<stop  offset="0.6184" style="stop-color:#EBC749"/>
			<stop  offset="0.8148" style="stop-color:#DBB135"/>
			<stop  offset="1" style="stop-color:#C6961B"/>
		</radialGradient>
		<path class="st24" d="M792.6,479.6c-5.7,8.2-10.6,16.2-11.1,16.9c0.3-0.7,3.2-6.4,6.5-13.2c0,0,0,0,0,0c0,0,0-0.1,0-0.1
			c3.2-6.6,6.8-14.1,9.1-19.1c3.3-7.3,5.7-13.8,6.9-17.2c6.9,5.1,13.3,7.6,13.3,7.6s-2.4,0.6-11,8
			C802.6,465.8,797.3,472.8,792.6,479.6z"/>
		<radialGradient id="SVGID_26_" cx="508.7389" cy="335.3885" r="369.0469" gradientUnits="userSpaceOnUse">
			<stop  offset="0.2503" style="stop-color:#F8D859"/>
			<stop  offset="0.4276" style="stop-color:#F5D455"/>
			<stop  offset="0.6184" style="stop-color:#EBC749"/>
			<stop  offset="0.8148" style="stop-color:#DBB135"/>
			<stop  offset="1" style="stop-color:#C6961B"/>
		</radialGradient>
		<path class="st25" d="M809.8,659.3c-2,2.7-2.5,5.5-2.7,8c-2.6-1.3-8.1-3.9-12.1-5.9c-5.5-2.8-8.9-8.7-8.9-8.7s6.3-5.5,10.5-6.6
			c4.2-1.1,4.8-0.7,4.8-0.7l9,9.3l1.9,2C811.3,657.5,810.5,658.4,809.8,659.3z"/>
		<radialGradient id="SVGID_27_" cx="508.7389" cy="335.3885" r="369.0469" gradientUnits="userSpaceOnUse">
			<stop  offset="0.2503" style="stop-color:#F8D859"/>
			<stop  offset="0.4276" style="stop-color:#F5D455"/>
			<stop  offset="0.6184" style="stop-color:#EBC749"/>
			<stop  offset="0.8148" style="stop-color:#DBB135"/>
			<stop  offset="1" style="stop-color:#C6961B"/>
		</radialGradient>
		<path class="st26" d="M733.6,499.5c6.2,0.9,12.3,2.2,17.8,3.9c0.1,0,0.1,0,0.2,0.1c-20.5,2.4-23.8,13.5-23.8,13.5
			s10.9-10.9,28.5-11.8c12,4.3,22,10.2,34.2,24c13.5,15.4,25.1,43.5,25.5,44.6c-0.5-0.6-8.8-10.5-18.9-12
			c-10.4-1.6-17.2,1.5-17.2,1.5s-11.9-11.7-18.8-10.3c-3.3,0.7-8.6,4.3-13.3,7.8c-1.1,0.8-2.1,1.7-3.1,2.5c-3.5,2.9-6.1,5.2-6.1,5.2
			s-3.5-0.7-13.2-10.3S713,532.7,713,532.7s-0.4,7.5,2.6,15.1c3.1,7.7,8.6,16.6,8.6,16.6s-13.9-2.8-20.1-19
			C698,529.2,701,512,701,512s-8,10.2-6.3,25.2c1.7,15,11.8,25.3,11.8,25.3s-8.7-0.5-17.4-3.4c-7.9-2.6-15.7-7.1-16.7-14.8
			c-2.2-16,13.8-31.3,14.3-31.8c-0.5,0.3-16.4,11.7-19.1,25.6c-2.8,14.1,7.6,24.4,7.6,24.4s-16.9,1.2-21.4-15.1
			c-4.6-16.3,3.3-32.6,3.3-32.6s-9.9,10.9-8.8,26.5c1,15.6,11.8,24,11.8,24s-13.2,0.7-22-8.8c-8.8-9.5-5.5-23.3,4.6-36.1
			c1.9-2.4,4.1-4.7,6.5-7c0,0,0,0,0,0c10.8-10.1,26.2-19,35.6-22.7c11.5-4.6,26.6,1.6,26.6,1.6s-26.4,0.2-38.7,11.9
			c0.6-0.2,19.6-6.5,33-6.5C713.8,497.6,723.8,498.1,733.6,499.5z"/>
		<radialGradient id="SVGID_28_" cx="508.7389" cy="335.3974" r="369.0415" gradientUnits="userSpaceOnUse">
			<stop  offset="0.2503" style="stop-color:#F8D859"/>
			<stop  offset="0.4276" style="stop-color:#F5D455"/>
			<stop  offset="0.6184" style="stop-color:#EBC749"/>
			<stop  offset="0.8148" style="stop-color:#DBB135"/>
			<stop  offset="1" style="stop-color:#C6961B"/>
		</radialGradient>
		<path class="st27" d="M783.5,670.1c3.7-6.7,8.6-5.3,8.6-5.3l15.6,9.7c1.2,2.9,4.2,4.3,4.2,4.3s-3.2,2.3-11.9,1.9
			c-8.7-0.4-15.8-4.9-17.1-6.3S783.5,670.1,783.5,670.1z"/>
		<path d="M806.1,443.3l-1.2,1.3c0,0-0.3,0.9-0.8,2.4c-1-0.7-1.9-1.5-2.9-2.3c-4.8-4-9.5-9.4-12.3-16c-6-14.7-4.9-25.3-4.3-28.6
			c0.1-0.7,0.2-1.1,0.2-1.1s2.8,24.5,14.4,38C801.5,439.5,803.8,441.6,806.1,443.3z"/>
		<radialGradient id="SVGID_29_" cx="508.7389" cy="335.3885" r="369.0469" gradientUnits="userSpaceOnUse">
			<stop  offset="0.2503" style="stop-color:#F8D859"/>
			<stop  offset="0.4276" style="stop-color:#F5D455"/>
			<stop  offset="0.6184" style="stop-color:#EBC749"/>
			<stop  offset="0.8148" style="stop-color:#DBB135"/>
			<stop  offset="1" style="stop-color:#C6961B"/>
		</radialGradient>
		<path class="st28" d="M802.5,630.3c0,0,1.3,10.3,1.3,10.5c0,0.2-10.9,1.2-20.5,8.7c-3.4-1.3-10.1-3.9-11.1-5
			c-1.3-1.4,1.3-14.7,1.3-14.7s0.8-4.1,7.7-4.2C788.2,625.5,802.5,630.3,802.5,630.3z"/>
		<path d="M801.2,444.6c1,0.8,1.9,1.6,2.9,2.3c-1.2,3.4-3.6,9.9-6.9,17.2c-2.3,5-5.9,12.5-9.1,19.1c0.3-0.7,1.6-4.6-2.2-9.5
			C796.3,460.9,801.2,444.6,801.2,444.6z"/>
		<radialGradient id="SVGID_30_" cx="508.7389" cy="335.3885" r="369.0469" gradientUnits="userSpaceOnUse">
			<stop  offset="0.2503" style="stop-color:#F8D859"/>
			<stop  offset="0.4276" style="stop-color:#F5D455"/>
			<stop  offset="0.6184" style="stop-color:#EBC749"/>
			<stop  offset="0.8148" style="stop-color:#DBB135"/>
			<stop  offset="1" style="stop-color:#C6961B"/>
		</radialGradient>
		<path class="st29" d="M785.8,473.6c-0.2,0.2-0.4,0.5-0.6,0.7c-10.9,12.8-22,17.7-27.9,19c-4.2,1-11.2,0.5-14.7,0.2
			c-1.4-0.1-2.2-0.2-2.2-0.2s12.3-5.1,25-17.9s16-28.8,16-28.8s-6.5,10.9-24.3,27.1c-17.8,16.2-32.3,13.6-35.1,13.1
			s-2.9-6.6-2.9-6.6s15.8-7.1,34-24.6c18.2-17.5,23.7-36.9,26.5-46.6c0.9-3.3,1.6-6.6,2.1-9.5l2.8,0.5c-0.6,3.3-1.7,14,4.3,28.6
			c2.8,6.7,7.5,12,12.3,16C801.2,444.6,796.3,460.9,785.8,473.6z"/>
		<radialGradient id="SVGID_31_" cx="508.7389" cy="335.3885" r="369.0469" gradientUnits="userSpaceOnUse">
			<stop  offset="0.2503" style="stop-color:#F8D859"/>
			<stop  offset="0.4276" style="stop-color:#F5D455"/>
			<stop  offset="0.6184" style="stop-color:#EBC749"/>
			<stop  offset="0.8148" style="stop-color:#DBB135"/>
			<stop  offset="1" style="stop-color:#C6961B"/>
		</radialGradient>
		<path class="st30" d="M792.6,605.2c0,0-0.8,2.5-1.8,5.1c-1,2.7-1.3,10.1-1.3,10.4c0,0.3-3.5-0.5-7.9,0c-4.4,0.5-7.7,2.8-8.1,2.8
			s-12.7-3.7-14.4-7.7c-1.8-4-5.4-15.2-5.4-15.2c10.9-6.5,17.7-6.3,22.6-3.1C781.4,600.6,792.6,605.2,792.6,605.2z"/>
		<path d="M788.1,483.2C788.1,483.2,788,483.3,788.1,483.2C788,483.3,788,483.2,788.1,483.2z"/>
		<radialGradient id="SVGID_32_" cx="508.7389" cy="335.3885" r="369.0469" gradientUnits="userSpaceOnUse">
			<stop  offset="0.2503" style="stop-color:#F8D859"/>
			<stop  offset="0.4276" style="stop-color:#F5D455"/>
			<stop  offset="0.6184" style="stop-color:#EBC749"/>
			<stop  offset="0.8148" style="stop-color:#DBB135"/>
			<stop  offset="1" style="stop-color:#C6961B"/>
		</radialGradient>
		<path class="st31" d="M774.1,649.5l12.1,10.5c0,0-5.8,4.6-7.2,11.4c-0.6,0-1.3,0-1.9-0.2c-4.7-1-4.2-4.3-14.3-16.8
			C767.5,648.1,774.1,649.5,774.1,649.5z"/>
		<path d="M723.1,458.9l-2.6-1.2c1.3-0.7,2.5-1.6,3.7-2.5c9-6.9,17-17.6,17.4-18.1c-0.1,0.4-1.9,5.3-5.9,12.8
			c-4.1,7.8-8.9,10.3-8.9,10.3l-4.1,11.2c0,0,24.2-16,41-40.5c16.9-24.5,19.4-41.5,19.4-41.5s-0.2,4.4-1.1,10.1
			c-0.5,2.9-1.1,6.2-2.1,9.5c-2.8,9.6-8.3,29-26.5,46.6c-18.2,17.5-34,24.6-34,24.6s0.1,6.1,2.9,6.6s17.3,3.1,35.1-13.1
			c17.8-16.2,24.3-27.1,24.3-27.1s-3.3,15.9-16,28.8s-25,17.9-25,17.9s0.9,0.1,2.2,0.2c-4.2,1.8-7.1,4-9.1,5.9
			c-9.8-1.4-19.7-1.9-28.1-1.9c-13.4,0-32.4,6.3-33,6.5c12.4-11.7,38.7-11.9,38.7-11.9s1.7-7.4-0.1-16.6c0.8-0.2,1.4-0.5,1.9-0.9
			c3.2-2.5,7.3-10.2,9.2-14C722.6,459.9,722.9,459.2,723.1,458.9z"/>
		<radialGradient id="SVGID_33_" cx="508.7389" cy="335.3885" r="369.0469" gradientUnits="userSpaceOnUse">
			<stop  offset="0.2503" style="stop-color:#F8D859"/>
			<stop  offset="0.4276" style="stop-color:#F5D455"/>
			<stop  offset="0.6184" style="stop-color:#EBC749"/>
			<stop  offset="0.8148" style="stop-color:#DBB135"/>
			<stop  offset="1" style="stop-color:#C6961B"/>
		</radialGradient>
		<path class="st32" d="M778.6,567.5l-4.3,20.5c0,0-10.4,6.9-19.3,5.8c-8.9-1.1-12-5.7-14.4-10.8c-0.2-0.4-0.4-0.9-0.5-1.4
			c-1.5-5.2,0.5-12,0.5-12s2.2-3.4,5.8-6.2c0.7-0.5,1.4-1.1,2.2-1.5c1.3-0.8,2.8-1.4,4.3-1.7c7.2-1.5,12.2-1.5,17.6,1.2
			C776,564.2,778.6,567.5,778.6,567.5z"/>
		<radialGradient id="SVGID_34_" cx="508.7389" cy="335.3885" r="369.0469" gradientUnits="userSpaceOnUse">
			<stop  offset="0.2503" style="stop-color:#F8D859"/>
			<stop  offset="0.4276" style="stop-color:#F5D455"/>
			<stop  offset="0.6184" style="stop-color:#EBC749"/>
			<stop  offset="0.8148" style="stop-color:#DBB135"/>
			<stop  offset="1" style="stop-color:#C6961B"/>
		</radialGradient>
		<path class="st33" d="M756.1,620.9l12.2,8c0,0-0.7,9.1-0.9,11.9c-0.2,2.8,0.3,5.1,0.3,5.1s-5.6,1.2-8.5,3.8
			c-8.8-12.1-11.8-23.2-12.8-24.4c-0.1-0.2-0.2-0.4-0.2-0.6C750,621.7,756.1,620.9,756.1,620.9z"/>
		<path d="M751.5,503.5c1.6,0.5,3.2,1,4.7,1.6c-17.6,0.9-28.5,11.8-28.5,11.8S731.1,505.9,751.5,503.5z"/>
		<radialGradient id="SVGID_35_" cx="508.7389" cy="335.3885" r="369.0469" gradientUnits="userSpaceOnUse">
			<stop  offset="0.2503" style="stop-color:#F8D859"/>
			<stop  offset="0.4276" style="stop-color:#F5D455"/>
			<stop  offset="0.6184" style="stop-color:#EBC749"/>
			<stop  offset="0.8148" style="stop-color:#DBB135"/>
			<stop  offset="1" style="stop-color:#C6961B"/>
		</radialGradient>
		<path class="st34" d="M751.4,599.5l2.4,15.8l-7.2,4.1c-1.1-0.5-2.3-1.3-3.3-2.4c-1-1.2-4.8-9.4-9-18.7c2.6-3.1,5.5-8,6.8-7
			C742.5,592.1,751.4,599.5,751.4,599.5z"/>
		<path d="M747.8,560.7l0.9,1.2c-0.8,0.5-1.5,1-2.2,1.5c-3.5,2.8-5.8,6.2-5.8,6.2s-2,6.9-0.5,12l-2.9,0.5c-0.9-3.2-2.2-6.9-2.9-7.8
			c-1.2-1.6-9.3-8.2-9.3-8.2s-0.1,0-0.3,0.1l-0.5-1.7c0,0-5.5-8.9-8.6-16.6c-3.1-7.7-2.6-15.1-2.6-15.1s2.8,15.7,12.4,25.3
			s13.2,10.3,13.2,10.3s2.6-2.3,6.1-5.2C745.7,562.4,746.7,561.5,747.8,560.7z"/>
		<radialGradient id="SVGID_36_" cx="508.7389" cy="335.3885" r="369.0469" gradientUnits="userSpaceOnUse">
			<stop  offset="0.2503" style="stop-color:#F8D859"/>
			<stop  offset="0.4276" style="stop-color:#F5D455"/>
			<stop  offset="0.6184" style="stop-color:#EBC749"/>
			<stop  offset="0.8148" style="stop-color:#DBB135"/>
			<stop  offset="1" style="stop-color:#C6961B"/>
		</radialGradient>
		<path class="st35" d="M698.1,399.2c2.8-0.2,5.8-0.3,8.7-0.3c22.5-0.1,34.7,3.9,34.7,3.9c-7.6-0.1-33.9,18.7-33.9,18.7
			s-21.6-8.9-41.9-16.9C665.7,404.5,679.7,400.4,698.1,399.2z"/>
		<radialGradient id="SVGID_37_" cx="508.7389" cy="335.3885" r="369.0469" gradientUnits="userSpaceOnUse">
			<stop  offset="0.2503" style="stop-color:#F8D859"/>
			<stop  offset="0.4276" style="stop-color:#F5D455"/>
			<stop  offset="0.6184" style="stop-color:#EBC749"/>
			<stop  offset="0.8148" style="stop-color:#DBB135"/>
			<stop  offset="1" style="stop-color:#C6961B"/>
		</radialGradient>
		<path class="st36" d="M737.3,582.1c0.8,2.6,1.3,4.9,1.1,5.1c-0.3,0.4-3.5,5.7-5.1,8.5c-5.3-12-10.9-24.9-11.8-27.2
			c1.3-1.6,2.7-2.1,3.4-2.3c0.2-0.1,0.3-0.1,0.3-0.1s8,6.6,9.3,8.2C735,575.1,736.3,578.8,737.3,582.1z"/>
		<path d="M724.3,564.5l0.5,1.7c-0.7,0.2-2.1,0.8-3.4,2.3c-0.1-0.2-0.2-0.3-0.2-0.3s-8.3-2.9-14.7-5.6c0,0-10.1-10.3-11.8-25.3
			c-1.7-15,6.3-25.2,6.3-25.2s-3,17.2,3.2,33.4C710.4,561.7,724.3,564.5,724.3,564.5z"/>
		<radialGradient id="SVGID_38_" cx="508.7389" cy="335.3885" r="369.0469" gradientUnits="userSpaceOnUse">
			<stop  offset="0.2503" style="stop-color:#F8D859"/>
			<stop  offset="0.4276" style="stop-color:#F5D455"/>
			<stop  offset="0.6184" style="stop-color:#EBC749"/>
			<stop  offset="0.8148" style="stop-color:#DBB135"/>
			<stop  offset="1" style="stop-color:#C6961B"/>
		</radialGradient>
		<path class="st37" d="M711.1,475.7c-6,1.8-19.1-0.9-19.1-0.9l15.7-7.9c0,0,7.9-2.3,14.5-6c-1.8,3.8-5.9,11.5-9.2,14
			C712.5,475.2,711.8,475.5,711.1,475.7z"/>
		<path d="M608.2,544.1c-5.2,5.5-17.3,24.6-7.8,35.6c9.5,11,29,3.4,29,3.4s-13.2-2.1-19.7-11.7C603.3,562,608.1,544.7,608.2,544.1z
			 M520,483.9c2.9,26.6,19.3,66.4,19.3,66.4s26.9-2.6,47.2-17.7c9.6-7.1,15.4-12.1,18.9-15.4c0,3.1-0.2,8.8-0.8,14.1
			c-0.8,7.8-0.6,14.8-0.6,14.8s9.8-10,23.3-19.6c0,0-19.3,18.3-11.2,37.6c3.2,7.6,9.2,11.3,15.8,12.6c0.6,6.9,2.7,9.6,3.6,10.4
			c-4.7,1.7-21.6,7-34.7,2.2c-15.4-5.6-9.8-29.6-9.8-29.6s-9.7,7.2-18.1,16.4c-8.4,9.2-20.6,14.6-20.6,14.6s2.3,2.2,8.1,4.5
			c0.7,3.3,0.4,5.3,0.1,6.3c-7-2.2-14.4-6.4-14.4-6.4s-18.5,12.6-34.2,11.2l-0.5-3.4c17.3-6.3,33.5-15.6,33.5-15.6s6.6-5,6.5-14.9
			c-5.2-6.1-13.6-9.5-13.6-9.5s-8.3,3.8-33.3,12.2s-45,8.8-46.8,11.8c-1.7,3,17.3,21,21.9,23.1c0.6,0.3,1.3,0.5,2,0.6
			c-4.5,0.3-6.8,0-6.8,0s-1.8,1.1-5,2.1c-14-7.2-23.2-22.9-23.2-22.9s-15.6,2.7-39.3,4.1c-23.7,1.4-33.3-0.2-33.3-0.2
			s-0.5,16.5,24.3,26.8c-0.4,0-0.7,0-0.8,0c-0.6,0-13.9-2.8-13.9-2.8l2.4,2.8c-14.6-7.5-25.3-24.1-25.3-24.1s-27.4,1.2-47.9-0.6
			c-6.4-0.6-12.3-0.9-17.3-1.1c-0.6-2.3-0.8-5.2,0.2-8.9c0,0,0,0,0,0c0.1-0.1,0.3-0.6,0.4-1.4c1.8-10.6,4.2-78.2,4.2-78.2l-26-12.4
			l-29.8,23.1c0,0-1.3,9.9-3.2,24.7c-1.9,14.8-9.2,31.9-9.2,31.9s-2.8-0.1-8.3-0.6c1.4-2.1,3.1-5.5,4.4-11.2
			c2.9-11.8,3.9-42.7,3.9-42.7s-12.9,2.8-23.3,1.5c-1.7,4.6-4.8,12-9.7,20.9c-8.4,15.1-16.4,23.9-16.4,23.9l-6.5,0.7
			c0,0,6.7-7.8,12.8-21.6c6.2-13.8,9.8-24.9,9.8-24.9s-7.1-1.8-14-6.1c0,0,14.6-0.9,14.7-1.4c0.1-0.3,0.3-4,0.5-6.6
			c6.3,1.7,13.6,3.5,17.3,3.7c7.3,0.4,18.3-1.8,18.3-1.8l30.2-26.7c0,0-0.4-29.9,2.6-51c3-21.1,5.5-28.3,5.5-28.3l-22.7-5.2
			c3.5-3.9,7.2-7.7,11.1-11.4c9.4,3.1,17.8,4.8,17.8,4.8l53.9-46l-3.7-10.4c4.3-2.6,8.7-5,13.1-7.4c0.9,5.2,2.3,13,2.3,13
			s20.2,1.3,38.1,2.6c17.9,1.4,26.7,6.7,26.7,6.7s25.2-14.7,43.7-22c18.5-7.3,20.4-8.5,20.4-8.5l8.3-18.7c0.7,0.1,1.4,0.2,2,0.2
			c6,0.7,4.1,4.8,6.8,4.8c2.6,0,6.5-3.7,10.6-4.3c-1.9,1.1-3.6,2.1-4.8,3.1c-5.7,4.3-5.8,14.6-5.8,15.9l55.9,25.3
			c0,0,18.7-5.6,45.1-6l18.9-12.3c0,0,0,0,0,0c0.3,0,8.4-1.1,9.7,10.4c-4.4,1.3-12.1,4.1-17.9,8.5c0,0,5.7,3,22.6,19.2
			c16.9,16.2,30.4,34.7,30.4,34.7c14.3-4.2,43.5-6.6,44.2-6.6c0,0,0,0,0,0c-0.4,2.9-1.6,5.6-2.8,7.6c-18.4,1.2-32.4,5.3-32.4,5.3
			c20.3,8.1,41.9,16.9,41.9,16.9c-0.9,0.6-1.9,1.8-3.1,3.5c-20.1-3-47.9-13.7-47.9-13.7l-20.8,26.6c11.6,9.6,24,20.7,36.9,26.3
			c-4.9,3.3-8,4.1-8,4.1s-0.5,0.5-1.3,1.5c-6.9-6.7-37.5-24.7-37.5-24.7l-31.6,14.7c1.7,4.8,15.4,41.6,25.4,46.9
			c-3.3,0.9-5.1,0.6-5.1,0.6s-2.8,3.5-4.1,4.8c0,0-0.1,0.2-0.4,0.6c-12.7-15-26.8-51.2-26.8-51.2l-24.5-5.5
			C558.7,455.9,539.5,470.8,520,483.9z M600.6,529c-0.6,0.9-6,8.1-22.8,15c-14.2,5.9-26.8,12-31.4,14.2c8.1,9.2,17.2,9.3,17.2,9.3
			s10.4-5.6,21.4-18C595.4,537.9,600.1,530,600.6,529z M355.8,498.6l-44,7.2l-6,80c26.6,9.1,64.2,0,64.2,0S356.2,527.4,355.8,498.6z
			 M644.5,403l-50.4-53l-41.6,5.7l10.3,86.4l24.4,5.5l31.5-13.8L644.5,403z M546.3,445.2l-9.2-90.6l-55.4-26l-62.5,31.5
			c0,0-2.3,7-5.2,34.1c-2.9,27.1,0,61.9,0,61.9l45.1,24.3l50.6-6.8L546.3,445.2z M497.6,570.3c21.7-4,34.6-14.8,34.6-14.8
			c-15.8-26.1-23.1-68.2-23.1-68.2l-42.6,6.9c1.5,15.6,0,77.5,0,77.5S475.9,574.3,497.6,570.3z M446.4,580c0,0,7.8-1.8,6.9-7.5
			c-0.9-5.7,0-79.6,0-79.6l-46.8-22.7l-38.8,26.4c0.2,26.8,12.1,85.5,13.5,88.5C382.6,588.1,446.4,580,446.4,580z M403.3,358.9
			l-56.3-8.9l-57.2,50.8l-9.2,79.6l27.8,13.3c0,0,30.9-9.3,50.1-8.8l38.5-29.1C397.1,455.9,395.3,397.1,403.3,358.9z"/>
		<radialGradient id="SVGID_39_" cx="508.7389" cy="335.3885" r="369.0469" gradientUnits="userSpaceOnUse">
			<stop  offset="0.2503" style="stop-color:#F8D859"/>
			<stop  offset="0.4276" style="stop-color:#F5D455"/>
			<stop  offset="0.6184" style="stop-color:#EBC749"/>
			<stop  offset="0.8148" style="stop-color:#DBB135"/>
			<stop  offset="1" style="stop-color:#C6961B"/>
		</radialGradient>
		<path class="st38" d="M709.2,576.8c-0.6,0.4-13.6,9-31.3,14.9c-18.1,6.1-33.2,6.5-33.2,6.5s17.8-4.2,34-9.9
			C694.6,582.9,708.7,577.1,709.2,576.8z"/>
		<radialGradient id="SVGID_40_" cx="508.7389" cy="335.3885" r="369.0469" gradientUnits="userSpaceOnUse">
			<stop  offset="0.2503" style="stop-color:#F8D859"/>
			<stop  offset="0.4276" style="stop-color:#F5D455"/>
			<stop  offset="0.6184" style="stop-color:#EBC749"/>
			<stop  offset="0.8148" style="stop-color:#DBB135"/>
			<stop  offset="1" style="stop-color:#C6961B"/>
		</radialGradient>
		<path class="st39" d="M704.5,425c-5.2,7.2-13.3,22.6-21.8,30.9c-3.8,3.7-7.2,6.4-10,8.3c-12.9-5.6-25.3-16.7-36.9-26.3l20.8-26.6
			C656.6,411.2,684.4,421.9,704.5,425z"/>
		<radialGradient id="SVGID_41_" cx="508.7389" cy="335.3885" r="369.0469" gradientUnits="userSpaceOnUse">
			<stop  offset="0.2503" style="stop-color:#F8D859"/>
			<stop  offset="0.4276" style="stop-color:#F5D455"/>
			<stop  offset="0.6184" style="stop-color:#EBC749"/>
			<stop  offset="0.8148" style="stop-color:#DBB135"/>
			<stop  offset="1" style="stop-color:#C6961B"/>
		</radialGradient>
		<path class="st40" d="M621.5,335.9c2-0.6,3.3-0.9,3.3-0.9s8.3-2.5,37,20.6c28.3,22.8,38.7,35.6,39,36c-0.7,0.1-30,2.4-44.2,6.6
			c0,0-13.5-18.6-30.4-34.7c-16.8-16.2-22.6-19.2-22.6-19.2C609.4,340,617.2,337.2,621.5,335.9z"/>
		<path d="M689.1,559.1c-9.3-1-14,3.4-14,3.4s-10.3-10.3-7.6-24.4c2.7-13.9,18.6-25.2,19.1-25.6c-0.5,0.4-16.5,15.7-14.3,31.8
			C673.5,552,681.3,556.5,689.1,559.1z"/>
		<radialGradient id="SVGID_42_" cx="508.7389" cy="335.3885" r="369.0469" gradientUnits="userSpaceOnUse">
			<stop  offset="0.2503" style="stop-color:#F8D859"/>
			<stop  offset="0.4276" style="stop-color:#F5D455"/>
			<stop  offset="0.6184" style="stop-color:#EBC749"/>
			<stop  offset="0.8148" style="stop-color:#DBB135"/>
			<stop  offset="1" style="stop-color:#C6961B"/>
		</radialGradient>
		<path class="st41" d="M560.5,595.2c-5.9-2.3-8.1-4.5-8.1-4.5s12.3-5.4,20.6-14.6c8.4-9.2,18.1-16.4,18.1-16.4s-5.6,24,9.8,29.6
			c13.1,4.8,29.9-0.5,34.7-2.2c0.3,0.2,0.4,0.3,0.4,0.3s7.8-1.3,22.1-4.1c14.3-2.9,26.5-6,26.5-6s-16.3,14.8-67.1,21.1
			C586.9,602.3,569.5,598.7,560.5,595.2z"/>
		<path d="M653.7,547.4c4.6,16.3,21.4,15.1,21.4,15.1s-3.1,3.7-15.6,9.2c0,0-24.9-2.3-30-19.8c-4-13.5,3.1-26.1,6.5-31.2
			c8.3-5.4,12.7-7.3,13.1-7.4c-2.4,2.3-4.6,4.6-6.5,7c-10.1,12.8-13.4,26.6-4.6,36.1c8.8,9.5,22,8.8,22,8.8s-10.8-8.4-11.8-24
			c-1-15.6,8.8-26.5,8.8-26.5S649.1,531.1,653.7,547.4z"/>
		<radialGradient id="SVGID_43_" cx="508.7389" cy="335.3885" r="369.0469" gradientUnits="userSpaceOnUse">
			<stop  offset="0.2503" style="stop-color:#F8D859"/>
			<stop  offset="0.4276" style="stop-color:#F5D455"/>
			<stop  offset="0.6184" style="stop-color:#EBC749"/>
			<stop  offset="0.8148" style="stop-color:#DBB135"/>
			<stop  offset="1" style="stop-color:#C6961B"/>
		</radialGradient>
		<path class="st42" d="M589.6,693.9c1.4,1.8,3,2.2,3,2.2s-12.5,0.2-22.3-1c-9.9-1.3-16.1-2.8-17.3-7.9c-1.2-5.2,3.1-10.1,3.1-10.1
			s-0.2-0.1-0.5-0.4c13,2.8,18.7-8.3,18.7-8.3s-10.9,6.5-21,4.5c-0.5-1.8-0.5-4.3,0.8-7.3c2.4-5.5,12-18.4,20-28.1
			c6-2.9,16.5-5.1,29.9-7.3c19-3.1,24.5-8.7,24.5-8.7s-5.3,2.3-18.3,4.3c-9.5,1.4-22.5,2.7-28.8,3.3c0.3-0.4,0.7-0.7,1-1
			c0,0,11.9-8.9,36.9-14.5c25-5.5,41.5-4.6,41.5-4.6s0,1.1-4.4,5.3c-4.4,4.1-10.8,10.7-10.8,10.7s6.2-1.3,10-3.8
			c3.8-2.5,5.2-6.9,5.2-6.9s-0.3,3.8-3.7,10.3c-2.4,4.7-6.4,11.9-8.5,15.4c0,0,0,0,0,0c-0.8,1.4-1.3,2.2-1.3,2.2s-10.4,3.8-18.5,7
			c-8,3.2-17.8,12.9-17.8,12.9s-1.6,0.9-7.1,1c-5.5,0.1-20.6,2.8-20.6,2.8s2.8,1.6,12,2.3c9.2,0.7,18.6,2.5,18.6,2.5s-3.1,3-6.8,4.2
			c-3.7,1.3-9.5,1.7-15.3,4.8c-5.7,3.1-11.6,4.3-11.6,4.3l7.6-0.7c0,0-1.1,3.3,0.1,7.7C588.5,692.2,589,693.2,589.6,693.9z"/>
		<radialGradient id="SVGID_44_" cx="508.7389" cy="335.3885" r="369.0469" gradientUnits="userSpaceOnUse">
			<stop  offset="0.2503" style="stop-color:#F8D859"/>
			<stop  offset="0.4276" style="stop-color:#F5D455"/>
			<stop  offset="0.6184" style="stop-color:#EBC749"/>
			<stop  offset="0.8148" style="stop-color:#DBB135"/>
			<stop  offset="1" style="stop-color:#C6961B"/>
		</radialGradient>
		<path class="st43" d="M663.3,469.7c-4.5,5-19.2,21.1-29.2,29.1c-6.1,4.8-11,6.9-14.4,7.8c-10.1-5.2-23.7-42.1-25.4-46.9l31.6-14.7
			C625.8,445,656.5,463,663.3,469.7z"/>
		<path d="M611.1,678.1c1.5,2.5,3.1,4.7,4.8,6.7c-1.8,0.4-3.5,0.6-4.8,0.8c-0.2-0.3-0.4-0.6-0.6-0.9c-3.2-4.3-9.2-4.3-9.2-4.3
			s-7.4,1.2-8.7,9.5c0.7,0.5,1.5,1,2.2,1.4c-2.2,1.2-3.8,2-5.1,2.5c-0.6-0.7-1.2-1.7-1.5-3c-1.3-4.4-0.1-7.7-0.1-7.7l-7.6,0.7
			c0,0,5.8-1.3,11.6-4.3c5.7-3.1,11.6-3.6,15.3-4.8c3.7-1.3,6.8-4.2,6.8-4.2s-9.4-1.8-18.6-2.5c-9.2-0.7-12-2.3-12-2.3
			s15.1-2.6,20.6-2.8c5.5-0.1,7.1-1,7.1-1s9.8-9.7,17.8-12.9c8-3.2,18.5-7,18.5-7s0.5-0.8,1.3-2.2c-0.1,0.4-2,6.7-7.7,11.6
			c0,0-8-0.7-14.2,4.9c-4.6,4.3-10.4,7.2-12.9,8.4c5.5,3.9,9.6,5.5,13,4.8c0.6,2,3.3,3.9,4.8,4.8c-2.3-0.3-4,0.1-4,0.1
			c6,2.6,6.4,4.9,7.4,8.1c-1.5,0.6-2.8,0.7-4,0.7c0-0.1-0.1-0.2-0.1-0.3c-4-6.4-6.8-8-6.8-8S614.2,674.3,611.1,678.1z"/>
		<radialGradient id="SVGID_45_" cx="508.7389" cy="335.3885" r="369.0469" gradientUnits="userSpaceOnUse">
			<stop  offset="0.2503" style="stop-color:#F8D859"/>
			<stop  offset="0.4276" style="stop-color:#F5D455"/>
			<stop  offset="0.6184" style="stop-color:#EBC749"/>
			<stop  offset="0.8148" style="stop-color:#DBB135"/>
			<stop  offset="1" style="stop-color:#C6961B"/>
		</radialGradient>
		<path class="st44" d="M632,576.8c-6.6-1.3-12.6-5.1-15.8-12.6c-8.1-19.3,11.2-37.6,11.2-37.6c0.2-0.2,0.4-0.3,0.6-0.5
			c2.9-2,5.5-3.8,7.9-5.3c-3.4,5-10.5,17.7-6.5,31.2c5.2,17.4,30,19.8,30,19.8C653.9,575.3,642.2,578.8,632,576.8z"/>
		<radialGradient id="SVGID_46_" cx="508.7389" cy="335.3885" r="369.0469" gradientUnits="userSpaceOnUse">
			<stop  offset="0.2503" style="stop-color:#F8D859"/>
			<stop  offset="0.4276" style="stop-color:#F5D455"/>
			<stop  offset="0.6184" style="stop-color:#EBC749"/>
			<stop  offset="0.8148" style="stop-color:#DBB135"/>
			<stop  offset="1" style="stop-color:#C6961B"/>
		</radialGradient>
		<path class="st45" d="M631.7,674.3c2.5,0.3,5.8,1.2,8.6,4c5.5,5.3,6.9,15.8,6.9,15.8s-7.9-2.8-10.7-8.1c-0.7-1.3-1.1-2.4-1.4-3.5
			c-1-3.3-1.4-5.5-7.4-8.1C627.8,674.4,629.4,674.1,631.7,674.3z"/>
		<radialGradient id="SVGID_47_" cx="508.7389" cy="335.3885" r="369.0469" gradientUnits="userSpaceOnUse">
			<stop  offset="0.2503" style="stop-color:#F8D859"/>
			<stop  offset="0.4276" style="stop-color:#F5D455"/>
			<stop  offset="0.6184" style="stop-color:#EBC749"/>
			<stop  offset="0.8148" style="stop-color:#DBB135"/>
			<stop  offset="1" style="stop-color:#C6961B"/>
		</radialGradient>
		<polygon class="st46" points="594,350.1 644.5,403 618.7,434 587.2,447.8 562.7,442.2 552.4,355.8 		"/>
		<radialGradient id="SVGID_48_" cx="508.7389" cy="335.3885" r="369.0469" gradientUnits="userSpaceOnUse">
			<stop  offset="0.2503" style="stop-color:#F8D859"/>
			<stop  offset="0.4276" style="stop-color:#F5D455"/>
			<stop  offset="0.6184" style="stop-color:#EBC749"/>
			<stop  offset="0.8148" style="stop-color:#DBB135"/>
			<stop  offset="1" style="stop-color:#C6961B"/>
		</radialGradient>
		<path class="st47" d="M626.9,669.6c-3.4,0.7-7.5-0.9-13-4.8c2.5-1.2,8.2-4.1,12.9-8.4c6.1-5.6,14.2-4.9,14.2-4.9
			s-4.4,10.2-9.1,15.1C630.3,668.2,628.7,669.2,626.9,669.6z"/>
		<radialGradient id="SVGID_49_" cx="508.7389" cy="335.3885" r="369.0469" gradientUnits="userSpaceOnUse">
			<stop  offset="0.2503" style="stop-color:#F8D859"/>
			<stop  offset="0.4276" style="stop-color:#F5D455"/>
			<stop  offset="0.6184" style="stop-color:#EBC749"/>
			<stop  offset="0.8148" style="stop-color:#DBB135"/>
			<stop  offset="1" style="stop-color:#C6961B"/>
		</radialGradient>
		<path class="st48" d="M631.2,683.3c3.9,6.4,3.3,13.8,3,13.8c-0.3,0-10.1-2.9-18.3-12.3c-1.7-1.9-3.3-4.1-4.8-6.7
			c3.2-3.8,13.2-3.1,13.2-3.1s2.8,1.6,6.8,8C631.1,683.1,631.2,683.2,631.2,683.3z"/>
		<path d="M610.2,625.6c13.1-2,18.3-4.3,18.3-4.3s-5.5,5.6-24.5,8.7c-13.4,2.2-23.9,4.4-29.9,7.3c2.8-3.4,5.3-6.3,7.3-8.5
			C587.7,628.3,600.7,627,610.2,625.6z"/>
		<radialGradient id="SVGID_50_" cx="508.7389" cy="335.3885" r="369.0469" gradientUnits="userSpaceOnUse">
			<stop  offset="0.2503" style="stop-color:#F8D859"/>
			<stop  offset="0.4276" style="stop-color:#F5D455"/>
			<stop  offset="0.6184" style="stop-color:#EBC749"/>
			<stop  offset="0.8148" style="stop-color:#DBB135"/>
			<stop  offset="1" style="stop-color:#C6961B"/>
		</radialGradient>
		<path class="st49" d="M609.8,571.5c6.5,9.6,19.7,11.7,19.7,11.7s-19.5,7.6-29-3.4c-9.5-11,2.6-30.1,7.8-35.6
			C608.1,544.7,603.3,562,609.8,571.5z"/>
		<radialGradient id="SVGID_51_" cx="508.7389" cy="335.3885" r="369.0469" gradientUnits="userSpaceOnUse">
			<stop  offset="0.2503" style="stop-color:#F8D859"/>
			<stop  offset="0.4276" style="stop-color:#F5D455"/>
			<stop  offset="0.6184" style="stop-color:#EBC749"/>
			<stop  offset="0.8148" style="stop-color:#DBB135"/>
			<stop  offset="1" style="stop-color:#C6961B"/>
		</radialGradient>
		<path class="st50" d="M611,685.6c2.8,4.5,4,12.3,4,12.3s-8.1,1-20.3-6.5c-0.7-0.4-1.4-0.9-2.2-1.4c1.4-8.3,8.7-9.5,8.7-9.5
			s6,0,9.2,4.3C610.6,685,610.8,685.3,611,685.6z"/>
		<radialGradient id="SVGID_52_" cx="508.7389" cy="335.3885" r="369.0469" gradientUnits="userSpaceOnUse">
			<stop  offset="0.2503" style="stop-color:#F8D859"/>
			<stop  offset="0.4276" style="stop-color:#F5D455"/>
			<stop  offset="0.6184" style="stop-color:#EBC749"/>
			<stop  offset="0.8148" style="stop-color:#DBB135"/>
			<stop  offset="1" style="stop-color:#C6961B"/>
		</radialGradient>
		<path class="st51" d="M611.8,325.5l-18.9,12.3c-26.4,0.3-45.1,6-45.1,6l-55.9-25.3c0-1.4,0.1-11.7,5.8-15.9c1.2-0.9,2.9-2,4.8-3.1
			C502.5,299.4,540,290.6,611.8,325.5z"/>
		<radialGradient id="SVGID_53_" cx="508.7389" cy="335.3885" r="369.0469" gradientUnits="userSpaceOnUse">
			<stop  offset="0.2503" style="stop-color:#F8D859"/>
			<stop  offset="0.4276" style="stop-color:#F5D455"/>
			<stop  offset="0.6184" style="stop-color:#EBC749"/>
			<stop  offset="0.8148" style="stop-color:#DBB135"/>
			<stop  offset="1" style="stop-color:#C6961B"/>
		</radialGradient>
		<path class="st52" d="M605.5,517.2c-3.5,3.3-9.3,8.3-18.9,15.4c-20.3,15.1-47.2,17.7-47.2,17.7s-16.5-39.7-19.3-66.4
			c19.5-13.1,38.8-28.1,38.8-28.1l24.5,5.5c0,0,14.1,36.2,26.8,51.2C609.4,513.3,608.1,514.8,605.5,517.2z"/>
		<radialGradient id="SVGID_54_" cx="508.7389" cy="335.3885" r="369.0469" gradientUnits="userSpaceOnUse">
			<stop  offset="0.2503" style="stop-color:#F8D859"/>
			<stop  offset="0.4276" style="stop-color:#F5D455"/>
			<stop  offset="0.6184" style="stop-color:#EBC749"/>
			<stop  offset="0.8148" style="stop-color:#DBB135"/>
			<stop  offset="1" style="stop-color:#C6961B"/>
		</radialGradient>
		<path class="st53" d="M600.6,529c-0.5,0.9-5.2,8.9-15.5,20.5c-11,12.4-21.4,18-21.4,18s-9.1-0.1-17.2-9.3
			c4.6-2.3,17.2-8.3,31.4-14.2C594.6,537.1,600,529.9,600.6,529z"/>
		<path d="M574.3,668.3c0,0-5.7,11.1-18.7,8.3c-0.6-0.6-1.7-1.9-2.2-3.8C563.4,674.9,574.3,668.3,574.3,668.3z"/>
		<radialGradient id="SVGID_55_" cx="508.7389" cy="335.3885" r="369.0469" gradientUnits="userSpaceOnUse">
			<stop  offset="0.2503" style="stop-color:#F8D859"/>
			<stop  offset="0.4276" style="stop-color:#F5D455"/>
			<stop  offset="0.6184" style="stop-color:#EBC749"/>
			<stop  offset="0.8148" style="stop-color:#DBB135"/>
			<stop  offset="1" style="stop-color:#C6961B"/>
		</radialGradient>
		<path class="st54" d="M560.6,601.5c-0.2,0.7-0.5,1-0.5,1s-9.4,3.3-26.7,4.4c-17.3,1-21.4-0.6-21.4-0.6
			c15.8,1.4,34.2-11.2,34.2-11.2S553.6,599.3,560.6,601.5z"/>
		<radialGradient id="SVGID_56_" cx="508.7389" cy="335.3885" r="369.0469" gradientUnits="userSpaceOnUse">
			<stop  offset="0.2503" style="stop-color:#F8D859"/>
			<stop  offset="0.4276" style="stop-color:#F5D455"/>
			<stop  offset="0.6184" style="stop-color:#EBC749"/>
			<stop  offset="0.8148" style="stop-color:#DBB135"/>
			<stop  offset="1" style="stop-color:#C6961B"/>
		</radialGradient>
		<path class="st55" d="M511.5,602.9c-0.4,0.1-0.7,0.3-1.1,0.4c-15.3,5.5-23.6,8.1-28.6,7.3c-0.8-0.1-1.4-0.3-2-0.6
			c-4.6-2.2-23.6-20.2-21.9-23.1c1.7-3,21.7-3.4,46.8-11.8s33.3-12.2,33.3-12.2s8.4,3.4,13.6,9.5c0.1,9.9-6.5,14.9-6.5,14.9
			S528.7,596.6,511.5,602.9z"/>
		<radialGradient id="SVGID_57_" cx="508.7389" cy="335.3885" r="369.0469" gradientUnits="userSpaceOnUse">
			<stop  offset="0.2503" style="stop-color:#F8D859"/>
			<stop  offset="0.4276" style="stop-color:#F5D455"/>
			<stop  offset="0.6184" style="stop-color:#EBC749"/>
			<stop  offset="0.8148" style="stop-color:#DBB135"/>
			<stop  offset="1" style="stop-color:#C6961B"/>
		</radialGradient>
		<path class="st56" d="M537.2,354.6l9.2,90.6l-36.6,28.4l-50.6,6.8l-45.1-24.3c0,0-2.9-34.8,0-61.9c2.9-27.1,5.2-34.1,5.2-34.1
			l62.5-31.5L537.2,354.6z"/>
		<radialGradient id="SVGID_58_" cx="508.7389" cy="335.3885" r="369.0469" gradientUnits="userSpaceOnUse">
			<stop  offset="0.2503" style="stop-color:#F8D859"/>
			<stop  offset="0.4276" style="stop-color:#F5D455"/>
			<stop  offset="0.6184" style="stop-color:#EBC749"/>
			<stop  offset="0.8148" style="stop-color:#DBB135"/>
			<stop  offset="1" style="stop-color:#C6961B"/>
		</radialGradient>
		<path class="st57" d="M532.1,555.5c0,0-12.8,10.8-34.6,14.8c-21.7,4-31.2,1.4-31.2,1.4s1.5-61.9,0-77.5l42.6-6.9
			C509,487.3,516.4,529.4,532.1,555.5z"/>
		<radialGradient id="SVGID_59_" cx="508.7389" cy="335.3885" r="369.0469" gradientUnits="userSpaceOnUse">
			<stop  offset="0.2503" style="stop-color:#F8D859"/>
			<stop  offset="0.4276" style="stop-color:#F5D455"/>
			<stop  offset="0.6184" style="stop-color:#EBC749"/>
			<stop  offset="0.8148" style="stop-color:#DBB135"/>
			<stop  offset="1" style="stop-color:#C6961B"/>
		</radialGradient>
		<path class="st58" d="M483.1,298.7l-8.3,18.7c0,0-1.9,1.1-20.4,8.5c-18.5,7.3-43.7,22-43.7,22s-8.8-5.3-26.7-6.7
			c-17.9-1.4-38.1-2.6-38.1-2.6s-1.4-7.8-2.3-13c6.7-3.6,13.5-7,20.2-10.1C415.8,291.8,448.9,294.8,483.1,298.7z"/>
		<radialGradient id="SVGID_60_" cx="508.7389" cy="335.3885" r="369.0469" gradientUnits="userSpaceOnUse">
			<stop  offset="0.2503" style="stop-color:#F8D859"/>
			<stop  offset="0.4276" style="stop-color:#F5D455"/>
			<stop  offset="0.6184" style="stop-color:#EBC749"/>
			<stop  offset="0.8148" style="stop-color:#DBB135"/>
			<stop  offset="1" style="stop-color:#C6961B"/>
		</radialGradient>
		<path class="st59" d="M470,612.7c-0.3,0.1-0.5,0.2-0.8,0.3c-3.7,1.1-36.8,7.2-51.7,7.5c-12.1,0.3-17.1,0.1-18.9,0l0,0
			c-24.8-10.3-24.3-26.8-24.3-26.8s9.6,1.5,33.3,0.2c23.7-1.4,39.3-4.1,39.3-4.1S455.9,605.5,470,612.7z"/>
		<radialGradient id="SVGID_61_" cx="508.7389" cy="335.3885" r="369.0469" gradientUnits="userSpaceOnUse">
			<stop  offset="0.2503" style="stop-color:#F8D859"/>
			<stop  offset="0.4276" style="stop-color:#F5D455"/>
			<stop  offset="0.6184" style="stop-color:#EBC749"/>
			<stop  offset="0.8148" style="stop-color:#DBB135"/>
			<stop  offset="1" style="stop-color:#C6961B"/>
		</radialGradient>
		<path class="st60" d="M453.3,572.5c0.9,5.7-6.9,7.5-6.9,7.5s-63.8,8-65.1,5c-1.4-3-13.3-61.7-13.5-88.5l38.8-26.4l46.8,22.7
			C453.3,492.9,452.3,566.9,453.3,572.5z"/>
		<radialGradient id="SVGID_62_" cx="508.7389" cy="335.3885" r="369.0469" gradientUnits="userSpaceOnUse">
			<stop  offset="0.2503" style="stop-color:#F8D859"/>
			<stop  offset="0.4276" style="stop-color:#F5D455"/>
			<stop  offset="0.6184" style="stop-color:#EBC749"/>
			<stop  offset="0.8148" style="stop-color:#DBB135"/>
			<stop  offset="1" style="stop-color:#C6961B"/>
		</radialGradient>
		<path class="st61" d="M347,350.1l56.3,8.9c-8,38.2-6.1,96.9-6.1,96.9L358.6,485c-19.3-0.5-50.1,8.8-50.1,8.8l-27.8-13.3l9.2-79.6
			L347,350.1z"/>
		<radialGradient id="SVGID_63_" cx="508.7389" cy="335.3885" r="369.0469" gradientUnits="userSpaceOnUse">
			<stop  offset="0.2503" style="stop-color:#F8D859"/>
			<stop  offset="0.4276" style="stop-color:#F5D455"/>
			<stop  offset="0.6184" style="stop-color:#EBC749"/>
			<stop  offset="0.8148" style="stop-color:#DBB135"/>
			<stop  offset="1" style="stop-color:#C6961B"/>
		</radialGradient>
		<path class="st62" d="M295.7,594.7c5,0.2,10.9,0.6,17.3,1.1c20.5,1.8,47.9,0.6,47.9,0.6s10.7,16.6,25.3,24.1l1.6,1.9
			c0,0-29.2,6-60.8-2.8c-31.6-8.7-49.1-25.2-49.1-25.2S284.8,594.3,295.7,594.7z"/>
		<radialGradient id="SVGID_64_" cx="508.7389" cy="335.3885" r="369.0469" gradientUnits="userSpaceOnUse">
			<stop  offset="0.2503" style="stop-color:#F8D859"/>
			<stop  offset="0.4276" style="stop-color:#F5D455"/>
			<stop  offset="0.6184" style="stop-color:#EBC749"/>
			<stop  offset="0.8148" style="stop-color:#DBB135"/>
			<stop  offset="1" style="stop-color:#C6961B"/>
		</radialGradient>
		<path class="st63" d="M381.5,671.4c1.7,0.8,3.3,1.5,4.9,2.3c-12,0.1-18.6,6.4-18.6,6.4l-7.8-7.5c0,0,0.7-0.3,2-0.7
			c3.2-1,9.9-2.8,16.2-2.1C379.3,670.3,380.4,670.9,381.5,671.4z"/>
		<radialGradient id="SVGID_65_" cx="508.7389" cy="335.3885" r="369.0469" gradientUnits="userSpaceOnUse">
			<stop  offset="0.2503" style="stop-color:#F8D859"/>
			<stop  offset="0.4276" style="stop-color:#F5D455"/>
			<stop  offset="0.6184" style="stop-color:#EBC749"/>
			<stop  offset="0.8148" style="stop-color:#DBB135"/>
			<stop  offset="1" style="stop-color:#C6961B"/>
		</radialGradient>
		<path class="st64" d="M381.5,651.2c-0.1,0.2-4.3,7.1-7.7,9.2c-1.7,1.1-3.5,2.2-4.9,2.9c-4.3-0.7-11.1-1.6-17-1.3
			c-0.8,0-1.7,0.1-2.5,0.2c-9.9,1.2-14.8,8-26.4,9.9c-11.7,1.8-19.5-1.8-19.5-1.8l-0.1,0c-0.3-3.4-0.9-16.8,11.1-21.3
			c4.5,2,18.3,7.5,32.3,7.8C363.5,657.2,380.9,651.4,381.5,651.2z"/>
		<path d="M361.2,669.7c-0.6-2.8-4-5-9.2-4.6l-0.1-2.9c5.9-0.3,12.6,0.6,17,1.3c-1.4,0.8-2.3,1.3-2.3,1.3s5.6,2.4,11.6,5.1
			c-6.3-0.7-13,1.1-16.2,2.1l-0.7-1.8C361.3,669.9,361.3,669.8,361.2,669.7z"/>
		<radialGradient id="SVGID_66_" cx="508.7389" cy="335.3885" r="369.0469" gradientUnits="userSpaceOnUse">
			<stop  offset="0.2503" style="stop-color:#F8D859"/>
			<stop  offset="0.4276" style="stop-color:#F5D455"/>
			<stop  offset="0.6184" style="stop-color:#EBC749"/>
			<stop  offset="0.8148" style="stop-color:#DBB135"/>
			<stop  offset="1" style="stop-color:#C6961B"/>
		</radialGradient>
		<path class="st65" d="M355.8,498.6c0.4,28.8,14.2,87.2,14.2,87.2s-37.6,9.1-64.2,0l6-80L355.8,498.6z"/>
		<radialGradient id="SVGID_67_" cx="508.7389" cy="335.3885" r="369.0469" gradientUnits="userSpaceOnUse">
			<stop  offset="0.2503" style="stop-color:#F8D859"/>
			<stop  offset="0.4276" style="stop-color:#F5D455"/>
			<stop  offset="0.6184" style="stop-color:#EBC749"/>
			<stop  offset="0.8148" style="stop-color:#DBB135"/>
			<stop  offset="1" style="stop-color:#C6961B"/>
		</radialGradient>
		<path class="st66" d="M361.2,669.7c-0.8-0.1-8-0.7-13.6,5.9c-6.3-0.3-8.9-3.8-8.9-3.8c0,0,0,0,0,0l-2.6-0.3c2-1.2,4.2-2.6,7.9-4.3
			c3-1.3,5.7-2,8-2.1C357.3,664.7,360.6,666.9,361.2,669.7z"/>
		<path d="M351.9,662.1l0.1,2.9c-2.3,0.1-5,0.8-8,2.1c-3.8,1.7-6,3.1-7.9,4.3c-3.3,2.1-6,3.6-14.4,4.9c-13.5,2.1-18.2-5.5-18.2-5.5
			s0,0.1,0,0.3c0,0,0,0,0,0.1h0c0,0,0,0,0-0.1c0-0.1-0.1-0.3-0.1-0.7l0.1,0c0,0,7.8,3.6,19.5,1.8c11.7-1.8,16.5-8.6,26.4-9.9
			C350.3,662.2,351.1,662.1,351.9,662.1z"/>
		<path d="M347.6,675.5c-0.3,0.3-0.5,0.6-0.8,1c0,0,0,0,0,0c-8.6,0.1-8.2-4.6-8.1-4.9C338.7,671.7,341.3,675.2,347.6,675.5z"/>
		<radialGradient id="SVGID_68_" cx="508.7389" cy="335.3885" r="369.0469" gradientUnits="userSpaceOnUse">
			<stop  offset="0.2503" style="stop-color:#F8D859"/>
			<stop  offset="0.4276" style="stop-color:#F5D455"/>
			<stop  offset="0.6184" style="stop-color:#EBC749"/>
			<stop  offset="0.8148" style="stop-color:#DBB135"/>
			<stop  offset="1" style="stop-color:#C6961B"/>
		</radialGradient>
		<path class="st67" d="M330.6,333l3.7,10.4l-53.9,46c0,0-8.4-1.7-17.8-4.8C282.4,365.2,306.1,347.5,330.6,333z"/>
		<radialGradient id="SVGID_69_" cx="508.7389" cy="335.3885" r="369.0469" gradientUnits="userSpaceOnUse">
			<stop  offset="0.2503" style="stop-color:#F8D859"/>
			<stop  offset="0.4276" style="stop-color:#F5D455"/>
			<stop  offset="0.6184" style="stop-color:#EBC749"/>
			<stop  offset="0.8148" style="stop-color:#DBB135"/>
			<stop  offset="1" style="stop-color:#C6961B"/>
		</radialGradient>
		<path class="st68" d="M320.3,626.3c0,0-3.3,4.8-20.2,7.6c-16.9,2.8-26.9,0-26.9,0s15.4-0.5,23.6-4.9c5.3-2.9,10.6-5,13.7-6.1
			C317,622.2,320.3,626.3,320.3,626.3z"/>
		<radialGradient id="SVGID_70_" cx="508.7389" cy="335.3885" r="369.0469" gradientUnits="userSpaceOnUse">
			<stop  offset="0.2503" style="stop-color:#F8D859"/>
			<stop  offset="0.4276" style="stop-color:#F5D455"/>
			<stop  offset="0.6184" style="stop-color:#EBC749"/>
			<stop  offset="0.8148" style="stop-color:#DBB135"/>
			<stop  offset="1" style="stop-color:#C6961B"/>
		</radialGradient>
		<path class="st69" d="M274.6,493.8l26,12.4c0,0-2.4,67.5-4.2,78.2c-0.2,0.5-0.3,0.9-0.4,1.4c-1.9,1.8-14.7,2.7-34.1-3.2
			c-19.5-6-29.4-9.2-29.4-9.2s7.2-17.1,9.2-31.9c1.9-14.8,3.2-24.7,3.2-24.7L274.6,493.8z"/>
		<path d="M295.9,585.8c0.1-0.5,0.3-0.9,0.4-1.4C296.2,585.2,296.1,585.6,295.9,585.8C295.9,585.8,295.9,585.8,295.9,585.8z"/>
		<radialGradient id="SVGID_71_" cx="508.7389" cy="335.3885" r="369.0469" gradientUnits="userSpaceOnUse">
			<stop  offset="0.2503" style="stop-color:#F8D859"/>
			<stop  offset="0.4276" style="stop-color:#F5D455"/>
			<stop  offset="0.6184" style="stop-color:#EBC749"/>
			<stop  offset="0.8148" style="stop-color:#DBB135"/>
			<stop  offset="1" style="stop-color:#C6961B"/>
		</radialGradient>
		<path class="st70" d="M200.3,505.4c-4.9-1.4-9.3-2.7-10.9-3.2c0,0,9.7-30.1,38.1-75.1c6.7-10.6,14.8-21,24.1-31.1l22.7,5.2
			c0,0-2.5,7.2-5.5,28.3c-3,21.1-2.6,51-2.6,51l-30.2,26.7c0,0-11,2.2-18.3,1.8C213.9,508.9,206.6,507.1,200.3,505.4z"/>
		<radialGradient id="SVGID_72_" cx="508.7389" cy="335.3885" r="369.0469" gradientUnits="userSpaceOnUse">
			<stop  offset="0.2503" style="stop-color:#F8D859"/>
			<stop  offset="0.4276" style="stop-color:#F5D455"/>
			<stop  offset="0.6184" style="stop-color:#EBC749"/>
			<stop  offset="0.8148" style="stop-color:#DBB135"/>
			<stop  offset="1" style="stop-color:#C6961B"/>
		</radialGradient>
		<path class="st71" d="M132.2,668.6c4.9-1.6,10.1-2,10.1-2s-3.6-1.9-9.5-1.3c-0.4,0.1-0.9,0.1-1.3,0.2c-4.9,0.7-7.7,2.4-7.9,2.5
			c0.2-0.5,7.4-14.9,16.6-19.9c2.9-1.6,6.4-2.9,9.9-4c7.8-2.5,15.5-3.7,15.5-3.7H151h-5.4c0,0,29-22.2,42.3-31.1
			c0.3-0.2,0.5-0.3,0.8-0.5c13-8.4,21.1-8.5,21.1-8.5s-10.5-3.1-19.7,3.5c1-1.8,2.4-3.7,4.2-5.2c5.3-4.3,12.5-8,22.8-6.8
			c10.3,1.3,23.5,5.8,33.9,13s9.5,15,8.5,19.6c-0.7,3.2-3.9,7-5.5,9.1c0.6-1.3,1.2-3.3,1.4-5.8c0.2-2.3,0.1-5-0.7-7.9
			c-2.3-8.9-12.8-12.2-12.8-12.2s10.6,10.2,9.4,19c-0.2,1.6-0.6,3.2-1.2,4.8c-0.9,2.7-2.3,5.3-4.1,8c-3.6-1.7-7.7-1.7-7.7-1.7
			s1.6-5.2-0.6-9.8c-2.2-4.6-5.3-7.3-5.3-7.3s2.4,4,1.7,8.6c-0.7,4.6-4.4,9.3-4.4,9.3s-6.3,1.6-13.1,6.9c-6.8,5.3-9.3,10-9.3,10
			s-3.6,6.2-24.9,7.6c-20.9,1.3-35.1-1.6-35.6-1.7c0.3,0.2,4.4,2.6,16.3,5.3c12.3,2.8,22.2,2.6,24.4,3.3c1.6,0.5,3.4,2.1,4.2,2.9
			l-1.7,1.8c0,0-1.1,1.5-8,3.4c-6,1.7-9.4,6.3-10.1,7.5c-0.1-0.1-0.2-0.2-0.2-0.2c-0.2-1.8-1.8-8.1-12-8.4
			c-8.2-0.2-13.1,5.7-15.4,9.5c-0.7,1.1-1.1,2-1.3,2.5c-0.1,0.3-0.2,0.5-0.2,0.5s-1.2-7.3-9-6.7c-4.7,0.4-8.2,2.6-10.3,4.3
			c-1.4,1.2-2.1,2.1-2.1,2.1s-0.7-11.4,3.6-16.5C126.7,670.9,129.4,669.6,132.2,668.6z"/>
		<path d="M254.8,619.9c0.8,2.9,0.9,5.6,0.7,7.9c-1,1.5-2.6,3-5.3,3.8c0.6-1.6,1-3.2,1.2-4.8c1.1-8.8-9.4-19-9.4-19
			S252.5,611,254.8,619.9z"/>
		<path d="M254.1,633.6c-0.5,1-0.9,1.6-1,1.5C253,634.9,253.4,634.4,254.1,633.6z"/>
		<path d="M246.1,639.6c-1,1.5-2.1,3-3.3,4.6c-4.9-2.2-12.9-2-22,2.9c-10.4,5.6-13.3,16.8-13.3,16.8s4.3,0.6,9.3,0.6
			c1,0,2-0.1,3.1-0.3c0.7,4.8-0.8,4.5-0.8,4.5c-5.5-1.1-11.7-2.9-14.9-2.3c-4.9,1-11.9,6.9-11.9,6.9s-0.1-0.2-0.4-0.4
			c-0.8-0.8-2.5-2.4-4.2-2.9c-2.2-0.7-12.1-0.6-24.4-3.3c-11.9-2.7-16-5.1-16.3-5.3c0.5,0.1,14.7,3.1,35.6,1.7
			c21.3-1.4,24.9-7.6,24.9-7.6s2.5-4.7,9.3-10c6.8-5.3,13.1-6.9,13.1-6.9s3.7-4.7,4.4-9.3c0.7-4.6-1.7-8.6-1.7-8.6s3.1,2.6,5.3,7.3
			c2.2,4.6,0.6,9.8,0.6,9.8S242.4,637.8,246.1,639.6z"/>
		<radialGradient id="SVGID_73_" cx="508.7389" cy="335.3885" r="369.0469" gradientUnits="userSpaceOnUse">
			<stop  offset="0.2503" style="stop-color:#F8D859"/>
			<stop  offset="0.4276" style="stop-color:#F5D455"/>
			<stop  offset="0.6184" style="stop-color:#EBC749"/>
			<stop  offset="0.8148" style="stop-color:#DBB135"/>
			<stop  offset="1" style="stop-color:#C6961B"/>
		</radialGradient>
		<path class="st72" d="M219.9,664.2c-1.1,0.2-2.1,0.3-3.1,0.3c-5,0-9.3-0.6-9.3-0.6s2.9-11.2,13.3-16.8c9.1-4.9,17-5.1,22-2.9
			c-2.1,2.8-4.5,5.6-7.1,8.7C229.3,660.6,224.3,663.3,219.9,664.2z"/>
		<radialGradient id="SVGID_74_" cx="508.7389" cy="335.3885" r="369.0469" gradientUnits="userSpaceOnUse">
			<stop  offset="0.2503" style="stop-color:#F8D859"/>
			<stop  offset="0.4276" style="stop-color:#F5D455"/>
			<stop  offset="0.6184" style="stop-color:#EBC749"/>
			<stop  offset="0.8148" style="stop-color:#DBB135"/>
			<stop  offset="1" style="stop-color:#C6961B"/>
		</radialGradient>
		<path class="st73" d="M232.4,518.9c0,0-1,30.8-3.9,42.7c-1.4,5.7-3.1,9.1-4.4,11.2c-1.7-0.1-3.7-0.3-6-0.5c-9.5-0.9-35.1-7-35.1-7
			s8-8.8,16.4-23.9c4.9-8.9,8-16.3,9.7-20.9C219.5,521.7,232.4,518.9,232.4,518.9z"/>
		<path d="M224.1,572.8c-1.5,2.3-2.7,2.9-2.7,2.9l-27.6,1.4L183,565.3c0,0,25.6,6.1,35.1,7C220.4,572.5,222.4,572.7,224.1,572.8z"/>
		<radialGradient id="SVGID_75_" cx="508.7389" cy="335.3885" r="369.0469" gradientUnits="userSpaceOnUse">
			<stop  offset="0.2503" style="stop-color:#F8D859"/>
			<stop  offset="0.4276" style="stop-color:#F5D455"/>
			<stop  offset="0.6184" style="stop-color:#EBC749"/>
			<stop  offset="0.8148" style="stop-color:#DBB135"/>
			<stop  offset="1" style="stop-color:#C6961B"/>
		</radialGradient>
		<path class="st74" d="M208.8,677.4l-0.2,0.2c0,0-3.2,0.2-6.5,1.5c-3.3,1.3-4.9,3.8-4.9,3.8s-6.7-3.1-6.9-4.7c-0.2-1.6,0-3.5,0-3.5
			l1.7-1.8c0.3,0.3,0.4,0.4,0.4,0.4s7-5.9,11.9-6.9c3.2-0.7,9.5,1.2,14.9,2.3L208.8,677.4z"/>
		<radialGradient id="SVGID_76_" cx="508.7389" cy="335.3885" r="369.0469" gradientUnits="userSpaceOnUse">
			<stop  offset="0.2503" style="stop-color:#F8D859"/>
			<stop  offset="0.4276" style="stop-color:#F5D455"/>
			<stop  offset="0.6184" style="stop-color:#EBC749"/>
			<stop  offset="0.8148" style="stop-color:#DBB135"/>
			<stop  offset="1" style="stop-color:#C6961B"/>
		</radialGradient>
		<path class="st75" d="M200.8,686.5c-0.1-0.2-0.2-0.3-0.3-0.4c1.2-4.4,11-5,14.2-2.5v0c0.2,0.1,0.4,0.3,0.5,0.5
			c2.6,3.2,4.4,10.6,4.4,14.2c0,3.5-1.3,6.8-1.3,6.8s-6.6-3.7-10.2-8.7C205.7,692.8,202.5,688.7,200.8,686.5z"/>
		<path d="M200.5,686.1c0,0.1,0,0.1,0,0.2c-1.9-1.2-3.3-3.4-3.3-3.4s1.6-2.5,4.9-3.8c3.3-1.3,6.5-1.5,6.5-1.5l0.2-0.2
			c1.5,1.1,5.2,3.8,5.9,6.1C211.5,681.1,201.8,681.7,200.5,686.1z"/>
		<path d="M209.9,600.3c0,0-8.1,0.1-21.1,8.5c-0.3,0.2-0.5,0.3-0.8,0.5c0.3-1.2,1-3.3,2.2-5.5C199.3,597.2,209.9,600.3,209.9,600.3z
			"/>
		<path d="M200.8,686.5c-0.1-0.1-0.3-0.2-0.4-0.2c0-0.1,0-0.1,0-0.2C200.6,686.2,200.7,686.4,200.8,686.5z"/>
		<radialGradient id="SVGID_77_" cx="508.7389" cy="335.3885" r="369.0469" gradientUnits="userSpaceOnUse">
			<stop  offset="0.2503" style="stop-color:#F8D859"/>
			<stop  offset="0.4276" style="stop-color:#F5D455"/>
			<stop  offset="0.6184" style="stop-color:#EBC749"/>
			<stop  offset="0.8148" style="stop-color:#DBB135"/>
			<stop  offset="1" style="stop-color:#C6961B"/>
		</radialGradient>
		<path class="st76" d="M176.1,688.1c-0.2-0.8-0.3-1.4-0.4-2c5.2-8.7,14-6,17.8-1.6c0.9,1,1.7,2.2,2.3,3.3c2.1,4,2.8,8.4,2.5,11.8
			c-0.5,4.4-1,6.3-1,6.3s-9.6-2.2-15.8-8.7C178.1,693.8,176.7,690.5,176.1,688.1z"/>
		<path d="M175.7,686.1c0.1,0.5,0.2,1.2,0.4,2c-1.8-0.5-3.4-1.9-4-2.5c0.8-1.2,4.2-5.8,10.1-7.5c6.9-2,8-3.4,8-3.4s-0.2,2,0,3.5
			c0.2,1.6,6.9,4.7,6.9,4.7s0.5,3.3-1.4,4.9c-0.6-1.2-1.4-2.3-2.3-3.3C189.7,680.1,180.8,677.4,175.7,686.1z"/>
		<radialGradient id="SVGID_78_" cx="508.7389" cy="335.3885" r="369.0469" gradientUnits="userSpaceOnUse">
			<stop  offset="0.2503" style="stop-color:#F8D859"/>
			<stop  offset="0.4276" style="stop-color:#F5D455"/>
			<stop  offset="0.6184" style="stop-color:#EBC749"/>
			<stop  offset="0.8148" style="stop-color:#DBB135"/>
			<stop  offset="1" style="stop-color:#C6961B"/>
		</radialGradient>
		<path class="st77" d="M199.1,519.5c0,0-3.6,11.1-9.8,24.9c-6.2,13.8-12.8,21.6-12.8,21.6l-36.4,1.3c0,0,14.6-8.9,23.8-21.8
			c9.3-12.8,21.2-32,21.2-32C192,517.7,199.1,519.5,199.1,519.5z"/>
		<radialGradient id="SVGID_79_" cx="508.7389" cy="335.3885" r="369.0469" gradientUnits="userSpaceOnUse">
			<stop  offset="0.2503" style="stop-color:#F8D859"/>
			<stop  offset="0.4276" style="stop-color:#F5D455"/>
			<stop  offset="0.6184" style="stop-color:#EBC749"/>
			<stop  offset="0.8148" style="stop-color:#DBB135"/>
			<stop  offset="1" style="stop-color:#C6961B"/>
		</radialGradient>
		<path class="st78" d="M176.6,591.1c2.1,2.4,1.2,8.3,1.2,8.3s-1.1-2.8-5-3c-3.6-0.2-6.8,0-11.5-3.5c2.5-1.3,4.6-2.4,6.4-3.2
			C167.8,589.8,174.5,588.8,176.6,591.1z"/>
		<path d="M171.9,685.4c0,0,0.1,0.1,0.2,0.2c-0.1,0.2-0.2,0.3-0.2,0.3S171.9,685.7,171.9,685.4z"/>
		<radialGradient id="SVGID_80_" cx="508.7389" cy="335.3885" r="369.0469" gradientUnits="userSpaceOnUse">
			<stop  offset="0.2503" style="stop-color:#F8D859"/>
			<stop  offset="0.4276" style="stop-color:#F5D455"/>
			<stop  offset="0.6184" style="stop-color:#EBC749"/>
			<stop  offset="0.8148" style="stop-color:#DBB135"/>
			<stop  offset="1" style="stop-color:#C6961B"/>
		</radialGradient>
		<path class="st79" d="M169.1,689.8c0,0.1,0,0.1,0,0.2c0.3,7.3-2.4,17.4-2.4,17.4s-11.8-2.6-16.6-11.8c-1.7-3.2-1.8-6-1.1-8.4
			c1.3-4.3,5.3-7,7.2-7.2C163.1,679.2,168.7,682.5,169.1,689.8z"/>
		<radialGradient id="SVGID_81_" cx="508.7389" cy="335.3885" r="369.0469" gradientUnits="userSpaceOnUse">
			<stop  offset="0.2503" style="stop-color:#F8D859"/>
			<stop  offset="0.4276" style="stop-color:#F5D455"/>
			<stop  offset="0.6184" style="stop-color:#EBC749"/>
			<stop  offset="0.8148" style="stop-color:#DBB135"/>
			<stop  offset="1" style="stop-color:#C6961B"/>
		</radialGradient>
		<path class="st80" d="M156.9,595.4c7.8,0.1,13.8,8.3,13.8,8.3s-6,7.3-16.1,5.6c-7.4-1.3-10.4-4.6-11.4-6.3c1.1-0.6,2.4-1.3,3.8-2
			C150.8,598.8,154,597,156.9,595.4z"/>
		<path d="M151,640.5h14.6c0,0-7.7,1.3-15.5,3.7C150.2,643,150.4,641.7,151,640.5z"/>
		<radialGradient id="SVGID_82_" cx="508.7389" cy="335.3885" r="369.0469" gradientUnits="userSpaceOnUse">
			<stop  offset="0.2503" style="stop-color:#F8D859"/>
			<stop  offset="0.4276" style="stop-color:#F5D455"/>
			<stop  offset="0.6184" style="stop-color:#EBC749"/>
			<stop  offset="0.8148" style="stop-color:#DBB135"/>
			<stop  offset="1" style="stop-color:#C6961B"/>
		</radialGradient>
		<path class="st81" d="M142.6,572c11.5,1.5,25.3,8.8,25.7,9c-0.4,0.1-9.5,2.6-17.1,0C145.9,579.3,143.6,574.8,142.6,572z"/>
		<radialGradient id="SVGID_83_" cx="508.7389" cy="335.3885" r="369.0469" gradientUnits="userSpaceOnUse">
			<stop  offset="0.2503" style="stop-color:#F8D859"/>
			<stop  offset="0.4276" style="stop-color:#F5D455"/>
			<stop  offset="0.6184" style="stop-color:#EBC749"/>
			<stop  offset="0.8148" style="stop-color:#DBB135"/>
			<stop  offset="1" style="stop-color:#C6961B"/>
		</radialGradient>
		<path class="st82" d="M147,609.5c4.1,2.8,6.7,4.7,6.7,4.7s-7.5,3.1-11.7,2.1c-3.8-0.9-5.9-2.9-8.8-9c2.5-0.9,5-2,8.3-3.6
			C142.8,605.5,144.7,607.9,147,609.5z"/>
		<path d="M126.1,689.7c-0.1,0.1-0.2,0.3-0.2,0.4c-1-0.7-1.8-1.7-2.2-2.9c2.1-1.7,5.5-3.9,10.3-4.3c7.9-0.6,9,6.7,9,6.7
			s0.1-0.2,0.2-0.5c0,0,0,3.4-3.1,3.4c-0.2-3-1.1-6.1-6.5-6.2C128.9,686.2,126.9,688.3,126.1,689.7z"/>
		<radialGradient id="SVGID_84_" cx="508.7389" cy="335.3885" r="369.0469" gradientUnits="userSpaceOnUse">
			<stop  offset="0.2503" style="stop-color:#F8D859"/>
			<stop  offset="0.4276" style="stop-color:#F5D455"/>
			<stop  offset="0.6184" style="stop-color:#EBC749"/>
			<stop  offset="0.8148" style="stop-color:#DBB135"/>
			<stop  offset="1" style="stop-color:#C6961B"/>
		</radialGradient>
		<path class="st83" d="M126.1,690.2L126.1,690.2c0-0.2,0-0.4,0-0.5c0.8-1.4,2.8-3.5,7.5-3.4c5.4,0.1,6.3,3.2,6.5,6.2
			c0.1,0.8,0.1,1.6,0.1,2.4c0.2,3.6,3.3,6.9,3.3,6.9s-9.5,2.3-14.3-4C126.7,694.5,126.1,691.9,126.1,690.2z"/>
		<path d="M132.9,665.3c6-0.6,9.5,1.3,9.5,1.3s-5.2,0.4-10.1,2c-0.3-0.9-0.6-2-0.7-3.1C132,665.5,132.4,665.4,132.9,665.3z"/>
		<path d="M126.1,689.7c0,0.2,0,0.3,0,0.5c-0.1,0-0.1-0.1-0.2-0.1C125.9,690,126,689.8,126.1,689.7z"/>
		<radialGradient id="SVGID_85_" cx="508.7389" cy="335.3885" r="369.0469" gradientUnits="userSpaceOnUse">
			<stop  offset="0.2503" style="stop-color:#F8D859"/>
			<stop  offset="0.4276" style="stop-color:#F5D455"/>
			<stop  offset="0.6184" style="stop-color:#EBC749"/>
			<stop  offset="0.8148" style="stop-color:#DBB135"/>
			<stop  offset="1" style="stop-color:#C6961B"/>
		</radialGradient>
		<path class="st84" d="M118.6,617.5c1.4,1.3,2.8,1.9,3.1,2.1c-0.6-0.2-4.2-1.1-11.3-1.2c-7.9-0.1-12.9,1.5-13.1,1.5
			c-0.2,0,2.6-2.5,8.6-4.7c3.9-1.4,6-1.5,9.6-2.3C116.3,615,117.5,616.5,118.6,617.5z"/>
	</g>
</g>
</svg>
